<?xml version="1.0" encoding="UTF-8" standalone="no"?>
<svg xmlns:rdf="http://www.w3.org/1999/02/22-rdf-syntax-ns#" xmlns="http://www.w3.org/2000/svg" version="1.1" xml:space="preserve" height="256.8" width="1368" enable-background="new 6.9335938 -0.1396484 175 36" y="0px" x="0px" xmlns:cc="http://creativecommons.org/ns#" xmlns:xlink="http://www.w3.org/1999/xlink" viewBox="6.9335938 -0.1396484 136.8374 25.679199" xmlns:dc="http://purl.org/dc/elements/1.1/"><g fill="#6b6b6b"><polygon points="164.2 28.63 164.2 7.912 161.9 7.912 161.9 24.93 149.4 7.899 147.3 7.896 147.3 28.62 149.6 28.62 149.6 11.97 161.9 28.63" transform="translate(-39.68 -5.571)"/><path d="m95.65 1.86c-5.826 0-9.898 4.456-9.898 10.83 0 6.389 4.072 10.84 9.898 10.84 5.82 0 9.879-4.455 9.879-10.84 0-6.379-4.059-10.83-9.879-10.83m0 19.48c-4.437 0-7.549-3.557-7.549-8.649 0-5.088 3.111-8.645 7.549-8.645 4.432 0 7.523 3.557 7.523 8.645 0.0001 5.092-3.092 8.649-7.523 8.649"/><polygon points="166.8 7.898 166.8 28.63 181.4 28.63 181.4 26.6 169.1 26.6 169.1 18.94 180.5 18.94 180.5 16.91 169.1 16.91 169.1 9.925 181.3 9.925 181.3 7.898" transform="translate(-39.68 -5.571)"/></g><g fill="#177d3e"><polygon points="118.2 7.912 121 7.912 113.7 17.79 121.7 28.65 118.9 28.65 112.3 19.66 105.7 28.65 103 28.65 110.9 17.79 103.7 7.912 106.4 7.912 112.3 15.97" transform="translate(-39.68 -5.571)"/><path d="m55.53 1.862c-5.824 0-9.896 4.456-9.896 10.83 0 6.389 4.071 10.84 9.896 10.84 5.82 0 9.879-4.453 9.879-10.84 0-6.379-4.059-10.83-9.879-10.83m0 19.48c-4.438 0-7.546-3.557-7.546-8.648 0-5.088 3.108-8.644 7.546-8.644 4.431 0 7.523 3.556 7.523 8.644 0 5.092-3.093 8.648-7.523 8.648"/><polygon points="48.61 28.65 51.34 28.65 57.96 19.66 64.58 28.65 67.31 28.65 59.33 17.79 66.61 7.912 63.88 7.912 57.95 15.97 52.03 7.912 49.31 7.912 56.58 17.79" transform="translate(-39.68 -5.571)"/><path d="m42.79 13c-0.4326-0.3687-0.9023-0.6538-1.358-0.8647 1.505-0.8169 2.492-2.361 2.492-4.152 0-1.327-0.4893-5.641-6.741-5.641h-8.421v8.94h-2.806c-0.3652 0.4741-1.19 1.613-1.506 2.081h4.312v9.715l8.421 0.001c4.562 0 7.396-2.317 7.396-6.054 0-1.633-0.6172-3.021-1.789-4.025m-11.7-8.495h6.093c1.65 0 4.411 0.4106 4.411 3.296 0 2.181-1.609 3.481-4.411 3.481h-6.093v-6.777zm6.093 16.41h-6.093v-7.55h6.093c2.311 0 5.074 0.6382 5.074 3.614-0.00001 3.422-3.178 3.936-5.074 3.936"/></g></svg>
