<svg width="2560" height="200" viewBox="0 0 2560 200" fill="none" xmlns="http://www.w3.org/2000/svg">
<path d="M0 73.1834L42.6667 77.3842C85.3333 81.9021 170.667 89.8281 256 85.8651C341.333 81.9021 426.667 64.4648 512 73.1834C597.333 81.9021 682.667 115.191 768 102.748C853.333 89.8281 938.667 31.1754 1024 9.77514C1109.33 -11.6252 1194.67 5.81213 1280 26.6576C1365.33 47.8201 1450.67 73.1834 1536 77.3842C1621.33 81.9021 1706.67 64.4648 1792 68.9826C1877.33 73.1834 1962.67 98.5467 2048 102.748C2133.33 107.265 2218.67 89.8281 2304 81.6643C2389.33 73.1834 2474.67 73.1834 2517.33 73.1834H2560V200H2517.33C2474.67 200 2389.33 200 2304 200C2218.67 200 2133.33 200 2048 200C1962.67 200 1877.33 200 1792 200C1706.67 200 1621.33 200 1536 200C1450.67 200 1365.33 200 1280 200C1194.67 200 1109.33 200 1024 200C938.667 200 853.333 200 768 200C682.667 200 597.333 200 512 200C426.667 200 341.333 200 256 200C170.667 200 85.3333 200 42.6667 200H0V73.1834Z" fill="#EFEFEF"/>
</svg>
