<svg width="2560" height="200" viewBox="0 0 2560 200" fill="none" xmlns="http://www.w3.org/2000/svg">
<path d="M0 166.096H42.6667C85.3333 166.096 170.667 166.096 256 142.368C341.333 118.64 426.667 71.1838 512 79.1179C597.333 86.7553 682.667 150.524 768 154.232C853.333 157.939 938.667 103.068 1024 94.9118C1109.33 86.7553 1194.67 126.796 1280 126.574C1365.33 126.796 1450.67 86.7553 1536 79.1179C1621.33 71.1838 1706.67 94.9118 1792 106.776C1877.33 118.64 1962.67 118.64 2048 134.434C2133.33 150.524 2218.67 181.667 2304 193.753C2389.33 205.395 2474.67 197.98 2517.33 193.753L2560 189.824V0H2517.33C2474.67 0 2389.33 0 2304 0C2218.67 0 2133.33 0 2048 0C1962.67 0 1877.33 0 1792 0C1706.67 0 1621.33 0 1536 0C1450.67 0 1365.33 0 1280 0C1194.67 0 1109.33 0 1024 0C938.667 0 853.333 0 768 0C682.667 0 597.333 0 512 0C426.667 0 341.333 0 256 0C170.667 0 85.3333 0 42.6667 0H0V166.096Z" fill="#EFEFEF"/>
</svg>
