<svg width="2560" height="200" viewBox="0 0 2560 200" fill="none" xmlns="http://www.w3.org/2000/svg">
<path d="M0 120V140H85.3333V20H170.667V0H256V100H341.333V180H426.667V40H512V120H597.333V180H682.667H768H853.333V120H938.667V60H1024H1109.33V40H1194.67V20H1280V160H1365.33V180H1450.67V160H1536V140H1621.33V60H1706.67V120H1792V40H1877.33V160H1962.67V120H2048V200H2133.33V120H2218.67V80H2304V160H2389.33V20H2474.67V140H2560V200H2474.67H2389.33H2304H2218.67H2133.33H2048H1962.67H1877.33H1792H1706.67H1621.33H1536H1450.67H1365.33H1280H1194.67H1109.33H1024H938.667H853.333H768H682.667H597.333H512H426.667H341.333H256H170.667H85.3333H0V120Z" fill="#070F26"/>
</svg>
