<svg width="2560" height="200" viewBox="0 0 2560 200" fill="none" xmlns="http://www.w3.org/2000/svg">
<path d="M0 44.4444V111.111H85.3333V22.2222H170.667V44.4444H256V0H341.333V88.8889H426.667V111.111H512V66.6667H597.333V200H682.667V155.556H768V66.6667H853.333V177.778H938.667V44.4444H1024H1109.33V111.111H1194.67V66.6667H1280V111.111H1365.33V66.6667H1450.67V44.4444H1536V200H1621.33H1706.67V88.8889H1792V155.556H1877.33V44.4444H1962.67V66.6667H2048H2133.33V155.556H2218.67V111.111H2304V155.556H2389.33V0H2474.67V44.4444H2560V0H2474.67H2389.33H2304H2218.67H2133.33H2048H1962.67H1877.33H1792H1706.67H1621.33H1536H1450.67H1365.33H1280H1194.67H1109.33H1024H938.667H853.333H768H682.667H597.333H512H426.667H341.333H256H170.667H85.3333H0V44.4444Z" fill="#EFEFEF"/>
</svg>
