<svg width="176" height="38" fill="none" xmlns="http://www.w3.org/2000/svg"><path d="M131.68 10.01c0 5.07-3.12 8.71-9.36 8.71h-8.45v10.92h-3.315V1.3h11.765c6.24 0 9.36 3.575 9.36 8.71zm-3.445 0c0-3.575-1.95-5.655-5.915-5.655h-8.45V15.73h8.45c3.965-.065 5.915-2.145 5.915-5.72zM133.695 1.3h3.185v28.275h-3.185V1.3zM158.46 26.975v2.6c-.52.065-1.17.13-1.755.13-2.275 0-3.315-.975-3.445-2.925-1.43 2.21-3.705 3.315-6.695 3.315-4.42 0-7.215-2.145-7.215-5.98 0-3.25 1.95-5.785 7.605-6.37l2.925-.325c2.08-.26 3.25-.975 3.25-2.795 0-2.145-1.105-3.25-4.615-3.25-3.51 0-4.94.975-5.2 4.03h-3.185c.26-3.965 2.34-6.825 8.32-6.825 5.655 0 7.735 2.535 7.735 5.98V26c0 .65.325.975 1.105.975h1.17zm-5.33-5.525v-2.405c-.65.455-1.495.78-2.73.845l-2.99.39c-3.705.455-4.745 1.69-4.745 3.705s1.3 3.38 4.095 3.38c3.055 0 6.37-1.82 6.37-5.915z" fill="#0A1A3D"/><path d="M175.62 9.1l-8.645 23.725c-1.3 3.64-3.445 4.68-6.695 4.68-.65 0-1.235-.065-1.885-.13V34.71h1.885c2.015 0 3.12-.91 3.705-2.535.26-.585.455-1.3.715-1.885L156.965 9.1h3.51l2.925 8.515c1.04 2.99 2.015 5.915 2.925 8.84.91-2.925 1.885-5.915 2.925-8.905l2.925-8.515h3.445V9.1z" fill="#0A1A3D"/><path d="M.38 6.695h6.695V.715H17.54v5.98H7.075v5.2h9.685v5.98H7.075v5.2H17.54v5.98H.38V6.695zM42.825.78v5.98h-8.06v22.425h-5.98V6.695H21.31V.78h21.515zM93.07 23.14h-5.98v-5.2h-8.97v11.18h-5.98V.78h5.98v11.18h8.97V.715h5.98V23.14zM61.675 19.5h5.98v3.705c0 3.445-2.925 6.695-8.19 6.695H54.98c-5.46 0-8.19-3.25-8.19-6.695V5.98c0-3.445 2.73-5.98 8.19-5.98h4.485c5.265 0 8.19 2.535 8.19 5.98v4.29h-5.98V7.995c0-1.69-.65-2.015-2.21-2.015H54.98c-1.56 0-2.21.585-2.21 2.21v13.455c0 1.69.65 2.21 2.21 2.21h4.485c1.625 0 2.21-.39 2.21-2.015V19.5z" fill="#0A142A"/><path d="M102.393 23.156v6.565h-6.565v-6.565h6.565z" fill="#3CE854"/></svg>