<svg width="410" height="93" viewBox="0 0 410 93" fill="none" xmlns="http://www.w3.org/2000/svg">
<path d="M17.696 36.712V16.168H29.408C31.136 16.168 32.8 16.296 34.4 16.552C36 16.808 37.408 17.32 38.624 18.088C39.84 18.792 40.8 19.816 41.504 21.16C42.272 22.504 42.656 24.264 42.656 26.44C42.656 28.616 42.272 30.376 41.504 31.72C40.8 33.064 39.84 34.12 38.624 34.888C37.408 35.592 36 36.072 34.4 36.328C32.8 36.584 31.136 36.712 29.408 36.712H17.696ZM2.624 4.456V73H17.696V48.424H33.536C37.824 48.424 41.472 47.816 44.48 46.6C47.488 45.32 49.92 43.656 51.776 41.608C53.696 39.56 55.072 37.224 55.904 34.6C56.8 31.912 57.248 29.192 57.248 26.44C57.248 23.624 56.8 20.904 55.904 18.28C55.072 15.656 53.696 13.32 51.776 11.272C49.92 9.224 47.488 7.592 44.48 6.376C41.472 5.096 37.824 4.456 33.536 4.456H2.624ZM65.5993 4.456V73H79.2313V4.456H65.5993ZM89.3893 38.632C89.5813 35.432 90.3813 32.776 91.7893 30.664C93.1973 28.552 94.9893 26.856 97.1653 25.576C99.3413 24.296 101.773 23.4 104.461 22.888C107.213 22.312 109.965 22.024 112.717 22.024C115.213 22.024 117.741 22.216 120.301 22.6C122.861 22.92 125.197 23.592 127.309 24.616C129.421 25.64 131.149 27.08 132.493 28.936C133.837 30.728 134.509 33.128 134.509 36.136V61.96C134.509 64.2 134.637 66.344 134.893 68.392C135.149 70.44 135.597 71.976 136.237 73H122.413C122.157 72.232 121.933 71.464 121.741 70.696C121.613 69.864 121.517 69.032 121.453 68.2C119.277 70.44 116.717 72.008 113.773 72.904C110.829 73.8 107.821 74.248 104.749 74.248C102.381 74.248 100.173 73.96 98.1253 73.384C96.0773 72.808 94.2853 71.912 92.7493 70.696C91.2133 69.48 89.9973 67.944 89.1013 66.088C88.2693 64.232 87.8533 62.024 87.8533 59.464C87.8533 56.648 88.3333 54.344 89.2933 52.552C90.3173 50.696 91.5973 49.224 93.1333 48.136C94.7333 47.048 96.5253 46.248 98.5093 45.736C100.557 45.16 102.605 44.712 104.653 44.392C106.701 44.072 108.717 43.816 110.701 43.624C112.685 43.432 114.445 43.144 115.981 42.76C117.517 42.376 118.733 41.832 119.629 41.128C120.525 40.36 120.941 39.272 120.877 37.864C120.877 36.392 120.621 35.24 120.109 34.408C119.661 33.512 119.021 32.84 118.189 32.392C117.421 31.88 116.493 31.56 115.405 31.432C114.381 31.24 113.261 31.144 112.045 31.144C109.357 31.144 107.245 31.72 105.709 32.872C104.173 34.024 103.277 35.944 103.021 38.632H89.3893ZM120.877 48.712C120.301 49.224 119.565 49.64 118.669 49.96C117.837 50.216 116.909 50.44 115.885 50.632C114.925 50.824 113.901 50.984 112.813 51.112C111.725 51.24 110.637 51.4 109.549 51.592C108.525 51.784 107.501 52.04 106.477 52.36C105.517 52.68 104.653 53.128 103.885 53.704C103.181 54.216 102.605 54.888 102.157 55.72C101.709 56.552 101.485 57.608 101.485 58.888C101.485 60.104 101.709 61.128 102.157 61.96C102.605 62.792 103.213 63.464 103.981 63.976C104.749 64.424 105.645 64.744 106.669 64.936C107.693 65.128 108.749 65.224 109.837 65.224C112.525 65.224 114.605 64.776 116.077 63.88C117.549 62.984 118.637 61.928 119.341 60.712C120.045 59.432 120.461 58.152 120.589 56.872C120.781 55.592 120.877 54.568 120.877 53.8V48.712ZM169.57 79.144L190.306 23.368H176.194L165.346 57.352H165.154L153.922 23.368H139.426L156.802 69.928C157.186 70.888 157.378 71.912 157.378 73C157.378 74.472 156.93 75.816 156.034 77.032C155.202 78.248 153.89 78.952 152.098 79.144C150.754 79.208 149.41 79.176 148.066 79.048C146.722 78.92 145.41 78.792 144.13 78.664V89.896C145.538 90.024 146.914 90.12 148.258 90.184C149.666 90.312 151.074 90.376 152.482 90.376C157.154 90.376 160.802 89.512 163.426 87.784C166.05 86.056 168.098 83.176 169.57 79.144ZM242.008 27.496H256.6C256.152 23.528 255.064 20.008 253.336 16.936C251.608 13.864 249.4 11.304 246.712 9.256C244.088 7.144 241.08 5.544 237.688 4.456C234.36 3.368 230.808 2.824 227.032 2.824C221.784 2.824 217.048 3.752 212.824 5.608C208.664 7.464 205.144 10.024 202.264 13.288C199.384 16.552 197.176 20.392 195.64 24.808C194.104 29.16 193.336 33.896 193.336 39.016C193.336 44.008 194.104 48.68 195.64 53.032C197.176 57.32 199.384 61.064 202.264 64.264C205.144 67.464 208.664 69.992 212.824 71.848C217.048 73.64 221.784 74.536 227.032 74.536C231.256 74.536 235.128 73.896 238.648 72.616C242.168 71.336 245.24 69.48 247.864 67.048C250.488 64.616 252.6 61.672 254.2 58.216C255.8 54.76 256.792 50.888 257.176 46.6H242.583C242.008 51.208 240.408 54.92 237.784 57.736C235.224 60.552 231.64 61.96 227.032 61.96C223.64 61.96 220.76 61.32 218.392 60.04C216.024 58.696 214.104 56.936 212.632 54.76C211.16 52.584 210.072 50.152 209.368 47.464C208.728 44.712 208.408 41.896 208.408 39.016C208.408 36.008 208.728 33.096 209.368 30.28C210.072 27.464 211.16 24.968 212.632 22.792C214.104 20.552 216.024 18.792 218.392 17.512C220.76 16.168 223.64 15.496 227.032 15.496C228.888 15.496 230.648 15.816 232.312 16.456C234.04 17.032 235.576 17.864 236.92 18.952C238.264 20.04 239.384 21.32 240.28 22.792C241.176 24.2 241.752 25.768 242.008 27.496ZM267.468 4.456V73H281.58V24.904H281.772L298.572 73H310.188L326.988 24.424H327.18V73H341.292V4.456H320.076L304.908 51.592H304.716L288.684 4.456H267.468ZM364.834 50.248H350.242C350.178 54.472 350.946 58.12 352.546 61.192C354.146 64.264 356.29 66.792 358.978 68.776C361.73 70.76 364.866 72.2 368.386 73.096C371.97 74.056 375.65 74.536 379.426 74.536C384.098 74.536 388.194 73.992 391.714 72.904C395.298 71.816 398.274 70.312 400.642 68.392C403.074 66.408 404.898 64.072 406.114 61.384C407.33 58.696 407.938 55.784 407.938 52.648C407.938 48.808 407.106 45.672 405.442 43.24C403.842 40.744 401.922 38.76 399.682 37.288C397.442 35.816 395.17 34.76 392.866 34.12C390.626 33.416 388.866 32.936 387.586 32.68C383.298 31.592 379.81 30.696 377.122 29.992C374.498 29.288 372.418 28.584 370.882 27.88C369.41 27.176 368.418 26.408 367.906 25.576C367.394 24.744 367.138 23.656 367.138 22.312C367.138 20.84 367.458 19.624 368.098 18.664C368.738 17.704 369.538 16.904 370.498 16.264C371.522 15.624 372.642 15.176 373.858 14.92C375.074 14.664 376.29 14.536 377.506 14.536C379.362 14.536 381.058 14.696 382.594 15.016C384.194 15.336 385.602 15.88 386.818 16.648C388.034 17.416 388.994 18.472 389.698 19.816C390.466 21.16 390.914 22.856 391.042 24.904H405.634C405.634 20.936 404.866 17.576 403.33 14.824C401.858 12.008 399.842 9.704 397.281 7.912C394.722 6.12 391.778 4.84 388.45 4.07199C385.186 3.24 381.762 2.824 378.178 2.824C375.106 2.824 372.034 3.24 368.962 4.07199C365.89 4.904 363.138 6.184 360.706 7.912C358.274 9.64 356.29 11.816 354.754 14.44C353.282 17 352.546 20.04 352.546 23.56C352.546 26.696 353.122 29.384 354.273 31.624C355.49 33.8 357.058 35.624 358.978 37.096C360.898 38.568 363.074 39.784 365.506 40.744C367.938 41.64 370.434 42.408 372.994 43.048C375.49 43.752 377.954 44.392 380.386 44.968C382.818 45.544 384.994 46.216 386.914 46.984C388.834 47.752 390.37 48.712 391.522 49.864C392.738 51.016 393.346 52.52 393.346 54.376C393.346 56.104 392.898 57.544 392.002 58.696C391.106 59.784 389.986 60.648 388.642 61.288C387.298 61.928 385.858 62.376 384.322 62.632C382.786 62.824 381.346 62.92 380.002 62.92C378.018 62.92 376.098 62.696 374.242 62.248C372.386 61.736 370.754 61 369.346 60.04C368.002 59.016 366.914 57.704 366.082 56.104C365.25 54.504 364.834 52.552 364.834 50.248Z" fill="white"/>
<path d="M17.696 36.712H15.696V38.712H17.696V36.712ZM17.696 16.168V14.168H15.696V16.168H17.696ZM34.4 16.552L34.084 18.5269L34.084 18.5269L34.4 16.552ZM38.624 18.088L37.556 19.779L37.5886 19.7995L37.6219 19.8189L38.624 18.088ZM41.504 21.16L39.7323 22.088L39.7493 22.1205L39.7675 22.1523L41.504 21.16ZM41.504 31.72L39.7675 30.7277L39.7493 30.7595L39.7323 30.792L41.504 31.72ZM38.624 34.888L39.6261 36.6189L39.6594 36.5995L39.692 36.579L38.624 34.888ZM34.4 36.328L34.084 34.3531L34.084 34.3531L34.4 36.328ZM2.624 4.456V2.456H0.624001V4.456H2.624ZM2.624 73H0.624001V75H2.624V73ZM17.696 73V75H19.696V73H17.696ZM17.696 48.424V46.424H15.696V48.424H17.696ZM44.48 46.6L45.2296 48.4542L45.2464 48.4474L45.2631 48.4403L44.48 46.6ZM51.776 41.608L50.3169 40.2401L50.3054 40.2524L50.294 40.265L51.776 41.608ZM55.904 34.6L54.0066 33.9675L54.002 33.9815L53.9975 33.9955L55.904 34.6ZM55.904 18.28L53.9975 18.8845L54.0042 18.9055L54.0113 18.9263L55.904 18.28ZM51.776 11.272L50.294 12.615L50.3054 12.6276L50.3169 12.6399L51.776 11.272ZM44.48 6.376L43.6969 8.21631L43.7136 8.22342L43.7304 8.23022L44.48 6.376ZM19.696 36.712V16.168H15.696V36.712H19.696ZM17.696 18.168H29.408V14.168H17.696V18.168ZM29.408 18.168C31.0371 18.168 32.5952 18.2887 34.084 18.5269L34.716 14.5771C33.0048 14.3033 31.2349 14.168 29.408 14.168V18.168ZM34.084 18.5269C35.4505 18.7455 36.5962 19.1728 37.556 19.779L39.692 16.397C38.2198 15.4672 36.5495 14.8705 34.716 14.5771L34.084 18.5269ZM37.6219 19.8189C38.4845 20.3182 39.1892 21.0512 39.7323 22.088L43.2757 20.232C42.4108 18.5808 41.1955 17.2658 39.6261 16.3571L37.6219 19.8189ZM39.7675 22.1523C40.3067 23.0959 40.656 24.4782 40.656 26.44H44.656C44.656 24.0498 44.2373 21.9121 43.2405 20.1677L39.7675 22.1523ZM40.656 26.44C40.656 28.4018 40.3067 29.7841 39.7675 30.7277L43.2405 32.7123C44.2373 30.9679 44.656 28.8302 44.656 26.44H40.656ZM39.7323 30.792C39.1823 31.842 38.4579 32.6274 37.556 33.197L39.692 36.579C41.2221 35.6126 42.4177 34.286 43.2757 32.648L39.7323 30.792ZM37.6219 33.1571C36.6476 33.7212 35.4788 34.1299 34.084 34.3531L34.716 38.3029C36.5212 38.0141 38.1684 37.4628 39.6261 36.6189L37.6219 33.1571ZM34.084 34.3531C32.5952 34.5913 31.0371 34.712 29.408 34.712V38.712C31.2349 38.712 33.0048 38.5767 34.716 38.3029L34.084 34.3531ZM29.408 34.712H17.696V38.712H29.408V34.712ZM0.624001 4.456V73H4.624V4.456H0.624001ZM2.624 75H17.696V71H2.624V75ZM19.696 73V48.424H15.696V73H19.696ZM17.696 50.424H33.536V46.424H17.696V50.424ZM33.536 50.424C38.0027 50.424 41.9203 49.792 45.2296 48.4542L43.7304 44.7458C41.0237 45.84 37.6453 46.424 33.536 46.424V50.424ZM45.2631 48.4403C48.4892 47.0675 51.1754 45.249 53.258 42.951L50.294 40.265C48.6646 42.063 46.4868 43.5725 43.6969 44.7597L45.2631 48.4403ZM53.2351 42.9759C55.3552 40.7145 56.8864 38.1189 57.8105 35.2045L53.9975 33.9955C53.2576 36.3291 52.0369 38.4055 50.3169 40.2401L53.2351 42.9759ZM57.8014 35.2325C58.7633 32.3466 59.248 29.4133 59.248 26.44H55.248C55.248 28.9707 54.8367 31.4774 54.0066 33.9675L57.8014 35.2325ZM59.248 26.44C59.248 23.4076 58.7649 20.469 57.7967 17.6337L54.0113 18.9263C54.8351 21.3389 55.248 23.8404 55.248 26.44H59.248ZM57.8105 17.6755C56.8864 14.7611 55.3551 12.1655 53.2351 9.90412L50.3169 12.6399C52.0369 14.4745 53.2576 16.5509 53.9975 18.8845L57.8105 17.6755ZM53.258 9.92896C51.1672 7.62188 48.4688 5.83125 45.2296 4.52178L43.7304 8.23022C46.5072 9.35275 48.6728 10.8261 50.294 12.615L53.258 9.92896ZM45.2631 4.53569C41.9433 3.123 38.0133 2.456 33.536 2.456V6.456C37.6347 6.456 41.0007 7.069 43.6969 8.21631L45.2631 4.53569ZM33.536 2.456H2.624V6.456H33.536V2.456ZM65.5993 4.456V2.456H63.5993V4.456H65.5993ZM65.5993 73H63.5993V75H65.5993V73ZM79.2313 73V75H81.2313V73H79.2313ZM79.2313 4.456H81.2313V2.456H79.2313V4.456ZM63.5993 4.456V73H67.5993V4.456H63.5993ZM65.5993 75H79.2313V71H65.5993V75ZM81.2313 73V4.456H77.2313V73H81.2313ZM79.2313 2.456H65.5993V6.456H79.2313V2.456ZM89.3893 38.632L87.3928 38.5122L87.2657 40.632H89.3893V38.632ZM91.7893 30.664L93.4534 31.7734L93.4534 31.7734L91.7893 30.664ZM97.1653 25.576L98.1793 27.2999L98.1793 27.2999L97.1653 25.576ZM104.461 22.888L104.835 24.8527L104.853 24.8493L104.871 24.8456L104.461 22.888ZM120.301 22.6L120.005 24.5779L120.029 24.5815L120.053 24.5846L120.301 22.6ZM127.309 24.616L126.437 26.4156L126.437 26.4156L127.309 24.616ZM132.493 28.936L130.873 30.109L130.883 30.1226L130.893 30.136L132.493 28.936ZM134.893 68.392L132.909 68.6401L132.909 68.6401L134.893 68.392ZM136.237 73V75H139.846L137.933 71.94L136.237 73ZM122.413 73L120.516 73.6325L120.972 75H122.413V73ZM121.741 70.696L119.765 71.0001L119.779 71.0914L119.801 71.1811L121.741 70.696ZM121.453 68.2L123.447 68.0466L123.107 63.6269L120.019 66.8064L121.453 68.2ZM113.773 72.904L114.356 74.8173L113.773 72.904ZM98.1253 73.384L98.6667 71.4587L98.6667 71.4587L98.1253 73.384ZM92.7493 70.696L91.5078 72.2641L91.5078 72.2641L92.7493 70.696ZM89.1013 66.088L87.2762 66.9061L87.2878 66.932L87.3001 66.9575L89.1013 66.088ZM89.2933 52.552L87.5421 51.5858L87.5361 51.5967L87.5303 51.6076L89.2933 52.552ZM93.1333 48.136L92.0086 46.4821L91.9928 46.4929L91.9772 46.504L93.1333 48.136ZM98.5093 45.736L99.009 47.6726L99.0299 47.6672L99.0507 47.6613L98.5093 45.736ZM104.653 44.392L104.962 46.368L104.962 46.368L104.653 44.392ZM110.701 43.624L110.509 41.6333L110.509 41.6333L110.701 43.624ZM115.981 42.76L115.496 40.8197L115.496 40.8197L115.981 42.76ZM119.629 41.128L120.865 42.7006L120.898 42.6743L120.931 42.6465L119.629 41.128ZM120.877 37.864H118.877V37.9094L118.879 37.9548L120.877 37.864ZM120.109 34.408L118.32 35.3024L118.36 35.3812L118.406 35.4562L120.109 34.408ZM118.189 32.392L117.08 34.0561L117.158 34.1083L117.241 34.1529L118.189 32.392ZM115.405 31.432L115.037 33.3977L115.104 33.4103L115.172 33.4183L115.405 31.432ZM103.021 38.632V40.632H104.84L105.012 38.8216L103.021 38.632ZM120.877 48.712H122.877V44.2583L119.549 47.2172L120.877 48.712ZM118.669 49.96L119.257 51.8716L119.3 51.8585L119.342 51.8435L118.669 49.96ZM115.885 50.632L115.517 48.6663L115.505 48.6685L115.493 48.6708L115.885 50.632ZM112.813 51.112L112.58 49.1257L112.58 49.1257L112.813 51.112ZM109.549 51.592L109.202 49.6224L109.191 49.6243L109.181 49.6263L109.549 51.592ZM106.477 52.36L105.881 50.451L105.863 50.4567L105.845 50.4626L106.477 52.36ZM103.885 53.704L105.062 55.3215L105.073 55.3128L105.085 55.304L103.885 53.704ZM102.157 61.96L100.396 62.9082L100.396 62.9082L102.157 61.96ZM103.981 63.976L102.872 65.6401L102.922 65.6734L102.974 65.7036L103.981 63.976ZM106.669 64.936L107.038 62.9703L107.038 62.9703L106.669 64.936ZM116.077 63.88L115.037 62.1716L115.037 62.1716L116.077 63.88ZM119.341 60.712L121.072 61.7141L121.083 61.6951L121.094 61.6758L119.341 60.712ZM120.589 56.872L118.611 56.5753L118.604 56.624L118.599 56.673L120.589 56.872ZM91.3857 38.7518C91.5619 35.8136 92.2871 33.5228 93.4534 31.7734L90.1252 29.5546C88.4754 32.0292 87.6006 35.0503 87.3928 38.5122L91.3857 38.7518ZM93.4534 31.7734C94.6948 29.9113 96.2651 28.4259 98.1793 27.2999L96.1512 23.8521C93.7134 25.2861 91.6997 27.1927 90.1251 29.5546L93.4534 31.7734ZM98.1793 27.2999C100.141 26.1457 102.354 25.3253 104.835 24.8527L104.087 20.9233C101.192 21.4747 98.541 22.4463 96.1512 23.8521L98.1793 27.2999ZM104.871 24.8456C107.491 24.2972 110.106 24.024 112.717 24.024V20.024C109.825 20.024 106.935 20.3268 104.052 20.9304L104.871 24.8456ZM112.717 24.024C115.11 24.024 117.539 24.2081 120.005 24.5779L120.598 20.6221C117.943 20.2239 115.316 20.024 112.717 20.024V24.024ZM120.053 24.5846C122.418 24.8801 124.54 25.4959 126.437 26.4156L128.182 22.8164C125.855 21.688 123.305 20.9599 120.549 20.6154L120.053 24.5846ZM126.437 26.4156C128.259 27.2993 129.728 28.527 130.873 30.109L134.113 27.763C132.571 25.633 130.583 23.9807 128.182 22.8164L126.437 26.4156ZM130.893 30.136C131.901 31.4803 132.509 33.4138 132.509 36.136H136.509C136.509 32.8422 135.773 29.9757 134.093 27.736L130.893 30.136ZM132.509 36.136V61.96H136.509V36.136H132.509ZM132.509 61.96C132.509 64.276 132.642 66.5032 132.909 68.6401L136.878 68.1439C136.633 66.1848 136.509 64.124 136.509 61.96H132.509ZM132.909 68.6401C133.179 70.7998 133.675 72.6735 134.541 74.06L137.933 71.94C137.52 71.2785 137.12 70.0802 136.878 68.1439L132.909 68.6401ZM136.237 71H122.413V75H136.237V71ZM124.311 72.3675C124.07 71.647 123.861 70.9282 123.682 70.2109L119.801 71.1811C120.006 71.9998 120.244 72.817 120.516 73.6325L124.311 72.3675ZM123.718 70.3919C123.598 69.6094 123.507 68.8277 123.447 68.0466L119.459 68.3534C119.527 69.2363 119.629 70.1186 119.765 71.0001L123.718 70.3919ZM120.019 66.8064C118.075 68.8077 115.807 70.1946 113.191 70.9907L114.356 74.8173C117.628 73.8214 120.48 72.0723 122.888 69.5936L120.019 66.8064ZM113.191 70.9907C110.435 71.8293 107.624 72.248 104.749 72.248V76.248C108.019 76.248 111.223 75.7707 114.356 74.8173L113.191 70.9907ZM104.749 72.248C102.544 72.248 100.52 71.9799 98.6667 71.4587L97.5838 75.3093C99.8266 75.9401 102.219 76.248 104.749 76.248V72.248ZM98.6667 71.4587C96.8513 70.9481 95.302 70.1661 93.9907 69.1279L91.5078 72.2641C93.2685 73.6579 95.3032 74.6679 97.5838 75.3093L98.6667 71.4587ZM93.9907 69.1279C92.7039 68.1093 91.674 66.8169 90.9024 65.2185L87.3001 66.9575C88.3205 69.0711 89.7226 70.8507 91.5078 72.2641L93.9907 69.1279ZM90.9263 65.2699C90.2354 63.7286 89.8533 61.8126 89.8533 59.464H85.8533C85.8533 62.2354 86.3031 64.7354 87.2762 66.9061L90.9263 65.2699ZM89.8533 59.464C89.8533 56.8572 90.3002 54.9077 91.0562 53.4964L87.5303 51.6076C86.3663 53.7803 85.8533 56.4388 85.8533 59.464H89.8533ZM91.0444 53.5182C91.9413 51.8926 93.0287 50.6609 94.2893 49.768L91.9772 46.504C90.1658 47.7871 88.6933 49.4994 87.5421 51.5858L91.0444 53.5182ZM94.2579 49.7899C95.6564 48.8388 97.2348 48.1304 99.009 47.6726L98.0095 43.7994C95.8157 44.3656 93.8101 45.2572 92.0086 46.4821L94.2579 49.7899ZM99.0507 47.6613C101.024 47.1063 102.995 46.6754 104.962 46.368L104.344 42.416C102.216 42.7486 100.09 43.2137 97.9678 43.8107L99.0507 47.6613ZM104.962 46.368C106.973 46.0538 108.95 45.8028 110.894 45.6147L110.509 41.6333C108.484 41.8292 106.43 42.0902 104.344 42.416L104.962 46.368ZM110.894 45.6147C112.952 45.4155 114.813 45.1135 116.466 44.7003L115.496 40.8197C114.077 41.1745 112.418 41.4485 110.509 41.6333L110.894 45.6147ZM116.466 44.7003C118.176 44.2729 119.679 43.6325 120.865 42.7006L118.394 39.5554C117.788 40.0315 116.858 40.4791 115.496 40.8197L116.466 44.7003ZM120.931 42.6465C122.387 41.3982 122.961 39.6626 122.875 37.7732L118.879 37.9548C118.921 38.8814 118.663 39.3218 118.328 39.6095L120.931 42.6465ZM122.877 37.864C122.877 36.1962 122.593 34.6282 121.813 33.3598L118.406 35.4562C118.649 35.8518 118.877 36.5878 118.877 37.864H122.877ZM121.898 33.5136C121.278 32.2725 120.355 31.2865 119.137 30.6311L117.241 34.1529C117.688 34.3935 118.045 34.7515 118.32 35.3024L121.898 33.5136ZM119.299 30.7279C118.223 30.0111 116.982 29.6037 115.639 29.4457L115.172 33.4183C116.005 33.5163 116.619 33.7489 117.08 34.0561L119.299 30.7279ZM115.774 29.4663C114.61 29.2481 113.365 29.144 112.045 29.144V33.144C113.158 33.144 114.152 33.2319 115.037 33.3977L115.774 29.4663ZM112.045 29.144C109.093 29.144 106.506 29.7746 104.509 31.272L106.909 34.472C107.985 33.6654 109.621 33.144 112.045 33.144V29.144ZM104.509 31.272C102.364 32.881 101.317 35.4281 101.03 38.4424L105.012 38.8216C105.237 36.4599 105.983 35.167 106.909 34.472L104.509 31.272ZM103.021 36.632H89.3893V40.632H103.021V36.632ZM119.549 47.2172C119.203 47.5239 118.706 47.8232 117.997 48.0765L119.342 51.8435C120.425 51.4568 121.399 50.9241 122.206 50.2068L119.549 47.2172ZM118.081 48.0484C117.334 48.2784 116.48 48.4855 115.517 48.6663L116.254 52.5977C117.338 52.3944 118.341 52.1536 119.257 51.8716L118.081 48.0484ZM115.493 48.6708C114.591 48.8512 113.621 49.0032 112.58 49.1257L113.047 53.0983C114.182 52.9648 115.259 52.7968 116.277 52.5932L115.493 48.6708ZM112.58 49.1257C111.453 49.2582 110.327 49.4238 109.202 49.6224L109.897 53.5616C110.947 53.3762 111.997 53.2218 113.047 53.0983L112.58 49.1257ZM109.181 49.6263C108.077 49.8331 106.977 50.1084 105.881 50.451L107.074 54.269C108.025 53.9716 108.973 53.7349 109.918 53.5577L109.181 49.6263ZM105.845 50.4626C104.692 50.8469 103.634 51.3922 102.685 52.104L105.085 55.304C105.672 54.8638 106.343 54.5131 107.11 54.2574L105.845 50.4626ZM102.709 52.0865C101.742 52.7897 100.974 53.6987 100.396 54.7718L103.918 56.6682C104.236 56.0773 104.62 55.6423 105.062 55.3215L102.709 52.0865ZM100.396 54.7718C99.7456 55.9802 99.4853 57.3892 99.4853 58.888H103.485C103.485 57.8268 103.673 57.1238 103.918 56.6682L100.396 54.7718ZM99.4853 58.888C99.4853 60.3426 99.7528 61.713 100.396 62.9082L103.918 61.0118C103.666 60.543 103.485 59.8654 103.485 58.888H99.4853ZM100.396 62.9082C100.996 64.0215 101.825 64.942 102.872 65.6401L105.091 62.3119C104.602 61.986 104.215 61.5625 103.918 61.0118L100.396 62.9082ZM102.974 65.7036C103.97 66.2849 105.089 66.6746 106.301 66.9017L107.038 62.9703C106.201 62.8134 105.528 62.5631 104.989 62.2484L102.974 65.7036ZM106.301 66.9017C107.451 67.1175 108.631 67.224 109.837 67.224V63.224C108.867 63.224 107.935 63.1385 107.038 62.9703L106.301 66.9017ZM109.837 67.224C112.704 67.224 115.203 66.7536 117.117 65.5884L115.037 62.1716C114.008 62.7984 112.346 63.224 109.837 63.224V67.224ZM117.117 65.5884C118.811 64.5574 120.167 63.2782 121.072 61.7141L117.61 59.7099C117.108 60.5778 116.288 61.4106 115.037 62.1716L117.117 65.5884ZM121.094 61.6758C121.91 60.1915 122.421 58.6534 122.579 57.071L118.599 56.673C118.501 57.6506 118.18 58.6725 117.589 59.7482L121.094 61.6758ZM122.567 57.1687C122.765 55.8472 122.877 54.7117 122.877 53.8H118.877C118.877 54.4243 118.797 55.3368 118.611 56.5753L122.567 57.1687ZM122.877 53.8V48.712H118.877V53.8H122.877ZM169.57 79.144L167.696 78.447L167.692 78.4581L169.57 79.144ZM190.306 23.368L192.181 24.0649L193.184 21.368H190.306V23.368ZM176.194 23.368V21.368H174.733L174.289 22.7598L176.194 23.368ZM165.346 57.352V59.352H166.807L167.252 57.9602L165.346 57.352ZM165.154 57.352L163.255 57.9796L163.709 59.352H165.154V57.352ZM153.922 23.368L155.821 22.7404L155.368 21.368H153.922V23.368ZM139.426 23.368V21.368H136.545L137.552 24.0673L139.426 23.368ZM156.802 69.928L154.928 70.6273L154.937 70.6491L154.945 70.6708L156.802 69.928ZM156.034 77.032L154.424 75.8456L154.403 75.8738L154.384 75.9026L156.034 77.032ZM152.098 79.144L152.193 81.1417L152.252 81.1389L152.311 81.1326L152.098 79.144ZM148.066 79.048L148.256 77.057L148.256 77.057L148.066 79.048ZM144.13 78.664L144.329 76.6739L142.13 76.454V78.664H144.13ZM144.13 89.896H142.13V91.7224L143.949 91.8878L144.13 89.896ZM148.258 90.184L148.439 88.1922L148.396 88.1883L148.353 88.1863L148.258 90.184ZM163.426 87.784L164.526 89.4543L164.526 89.4543L163.426 87.784ZM171.445 79.8409L192.181 24.0649L188.432 22.6711L167.696 78.4471L171.445 79.8409ZM190.306 21.368H176.194V25.368H190.306V21.368ZM174.289 22.7598L163.441 56.7438L167.252 57.9602L178.1 23.9762L174.289 22.7598ZM165.346 55.352H165.154V59.352H165.346V55.352ZM167.053 56.7244L155.821 22.7404L152.023 23.9956L163.255 57.9796L167.053 56.7244ZM153.922 21.368H139.426V25.368H153.922V21.368ZM137.552 24.0673L154.928 70.6273L158.676 69.2287L141.3 22.6687L137.552 24.0673ZM154.945 70.6708C155.23 71.3823 155.378 72.1529 155.378 73H159.378C159.378 71.6711 159.143 70.3937 158.659 69.1852L154.945 70.6708ZM155.378 73C155.378 74.0332 155.074 74.9637 154.424 75.8456L157.644 78.2184C158.787 76.6683 159.378 74.9108 159.378 73H155.378ZM154.384 75.9026C153.955 76.5293 153.237 77.0105 151.885 77.1554L152.311 81.1326C154.543 80.8935 156.45 79.9667 157.685 78.1614L154.384 75.9026ZM152.003 77.1463C150.754 77.2057 149.506 77.176 148.256 77.057L147.877 81.039C149.315 81.176 150.754 81.2103 152.193 81.1417L152.003 77.1463ZM148.256 77.057C146.915 76.9293 145.606 76.8016 144.329 76.6739L143.931 80.6541C145.215 80.7824 146.53 80.9107 147.877 81.039L148.256 77.057ZM142.13 78.664V89.896H146.13V78.664H142.13ZM143.949 91.8878C145.384 92.0183 146.789 92.1163 148.163 92.1817L148.353 88.1863C147.039 88.1237 145.692 88.0297 144.311 87.9042L143.949 91.8878ZM148.077 92.1758C149.545 92.3092 151.014 92.376 152.482 92.376V88.376C151.135 88.376 149.787 88.3148 148.439 88.1922L148.077 92.1758ZM152.482 92.376C157.366 92.376 161.453 91.4783 164.526 89.4543L162.326 86.1137C160.152 87.5457 156.942 88.376 152.482 88.376V92.376ZM164.526 89.4543C167.619 87.4175 169.883 84.1199 171.449 79.8299L167.692 78.4581C166.314 82.2321 164.481 84.6945 162.326 86.1137L164.526 89.4543ZM242.008 27.496L240.029 27.7891L240.282 29.496H242.008V27.496ZM256.6 27.496V29.496H258.838L258.587 27.2716L256.6 27.496ZM253.336 16.936L255.079 15.9555L255.079 15.9555L253.336 16.936ZM246.712 9.256L245.457 10.814L245.478 10.8307L245.499 10.8469L246.712 9.256ZM237.688 4.456L237.066 6.35702L237.077 6.36043L237.688 4.456ZM212.824 5.608L212.019 3.77693L212.009 3.78154L212.824 5.608ZM202.264 13.288L203.763 14.6112L203.763 14.6112L202.264 13.288ZM195.64 24.808L197.526 25.4736L197.528 25.465L195.64 24.808ZM195.64 53.032L193.753 53.6976L193.757 53.7065L195.64 53.032ZM202.264 64.264L203.75 62.9261L203.75 62.9261L202.264 64.264ZM212.824 71.848L212.009 73.6745L212.025 73.682L212.042 73.6892L212.824 71.848ZM238.648 72.616L239.331 74.4956L239.331 74.4956L238.648 72.616ZM247.864 67.048L246.504 65.5811L246.504 65.5811L247.864 67.048ZM254.2 58.216L256.014 59.0562L256.014 59.0562L254.2 58.216ZM257.176 46.6L259.168 46.7784L259.363 44.6H257.176V46.6ZM242.583 46.6V44.6H240.818L240.599 46.3519L242.583 46.6ZM237.784 57.736L236.32 56.3725L236.312 56.3815L236.304 56.3907L237.784 57.736ZM218.392 60.04L217.404 61.7794L217.422 61.7896L217.44 61.7994L218.392 60.04ZM212.632 54.76L210.975 55.8806L210.975 55.8806L212.632 54.76ZM209.368 47.464L207.419 47.917L207.426 47.944L207.433 47.9707L209.368 47.464ZM209.368 30.28L207.427 29.7949L207.422 29.8158L207.417 29.8368L209.368 30.28ZM212.632 22.792L214.288 23.9126L214.296 23.9015L214.303 23.8904L212.632 22.792ZM218.392 17.512L219.343 19.2714L219.361 19.2616L219.379 19.2514L218.392 17.512ZM232.312 16.456L231.594 18.3227L231.636 18.339L231.679 18.3534L232.312 16.456ZM240.28 22.792L238.571 23.8319L238.581 23.8489L238.592 23.8658L240.28 22.792ZM242.008 29.496H256.6V25.496H242.008V29.496ZM258.587 27.2716C258.113 23.073 256.954 19.2897 255.079 15.9555L251.592 17.9165C253.173 20.7263 254.19 23.983 254.612 27.7204L258.587 27.2716ZM255.079 15.9555C253.223 12.6564 250.838 9.88538 247.924 7.66513L245.499 10.8469C247.961 12.7226 249.992 15.0716 251.592 17.9165L255.079 15.9555ZM247.966 7.69797C245.139 5.42329 241.911 3.71021 238.298 2.55157L237.077 6.36043C240.248 7.37779 243.036 8.86471 245.457 10.814L247.966 7.69797ZM238.309 2.555C234.765 1.39646 231.002 0.823999 227.032 0.823999V4.824C230.613 4.824 233.954 5.33953 237.066 6.35699L238.309 2.555ZM227.032 0.823999C221.544 0.823999 216.529 1.79521 212.019 3.77696L213.628 7.43904C217.566 5.70879 222.023 4.824 227.032 4.824V0.823999ZM212.009 3.78154C207.599 5.74873 203.842 8.47591 200.764 11.9648L203.763 14.6112C206.445 11.5721 209.728 9.17926 213.638 7.43446L212.009 3.78154ZM200.764 11.9648C197.7 15.4375 195.365 19.5081 193.751 24.151L197.528 25.465C198.986 21.2759 201.067 17.6665 203.763 14.6112L200.764 11.9648ZM193.754 24.1424C192.134 28.7302 191.336 33.6939 191.336 39.016H195.336C195.336 34.0981 196.073 29.5897 197.525 25.4736L193.754 24.1424ZM191.336 39.016C191.336 44.2162 192.136 49.115 193.754 53.6976L197.525 52.3664C196.071 48.245 195.336 43.7998 195.336 39.016H191.336ZM193.757 53.7065C195.375 58.2249 197.713 62.1976 200.777 65.6019L203.75 62.9261C201.054 59.9304 198.976 56.4151 197.522 52.3575L193.757 53.7065ZM200.777 65.6019C203.855 69.022 207.608 71.7112 212.009 73.6745L213.638 70.0215C209.719 68.2728 206.432 65.906 203.75 62.9261L200.777 65.6019ZM212.042 73.6892C216.546 75.6 221.553 76.536 227.032 76.536V72.536C222.014 72.536 217.549 71.68 213.605 70.0068L212.042 73.6892ZM227.032 76.536C231.459 76.536 235.566 75.8647 239.331 74.4956L237.964 70.7364C234.689 71.9273 231.052 72.536 227.032 72.536V76.536ZM239.331 74.4956C243.09 73.1288 246.394 71.1366 249.223 68.5149L246.504 65.5811C244.085 67.8234 241.245 69.5432 237.964 70.7364L239.331 74.4956ZM249.223 68.5149C252.05 65.8945 254.312 62.7334 256.014 59.0562L252.385 57.3758C250.887 60.6106 248.925 63.3375 246.504 65.5811L249.223 68.5149ZM256.014 59.0562C257.723 55.3661 258.766 51.266 259.168 46.7784L255.183 46.4216C254.817 50.51 253.876 54.1539 252.385 57.3758L256.014 59.0562ZM257.176 44.6H242.583V48.6H257.176V44.6ZM240.599 46.3519C240.064 50.6307 238.602 53.9234 236.32 56.3725L239.247 59.0995C242.213 55.9166 243.951 51.7853 244.568 46.8481L240.599 46.3519ZM236.304 56.3907C234.201 58.7031 231.205 59.96 227.032 59.96V63.96C232.074 63.96 236.246 62.4009 239.263 59.0813L236.304 56.3907ZM227.032 59.96C223.887 59.96 221.352 59.3668 219.343 58.2806L217.44 61.7994C220.167 63.2732 223.392 63.96 227.032 63.96V59.96ZM219.379 58.3006C217.268 57.1029 215.581 55.5509 214.288 53.6394L210.975 55.8806C212.626 58.3211 214.779 60.2891 217.404 61.7794L219.379 58.3006ZM214.288 53.6394C212.95 51.6614 211.952 49.4391 211.302 46.9573L207.433 47.9707C208.191 50.8649 209.369 53.5066 210.975 55.8806L214.288 53.6394ZM211.316 47.011C210.711 44.4104 210.408 41.7465 210.408 39.016H206.408C206.408 42.0455 206.744 45.0136 207.419 47.917L211.316 47.011ZM210.408 39.016C210.408 36.1509 210.712 33.3879 211.318 30.7232L207.417 29.8368C206.743 32.8041 206.408 35.8651 206.408 39.016H210.408ZM211.308 30.7651C211.961 28.1522 212.96 25.8757 214.288 23.9126L210.975 21.6714C209.359 24.0603 208.182 26.7758 207.427 29.7949L211.308 30.7651ZM214.303 23.8904C215.592 21.9281 217.264 20.3948 219.343 19.2714L217.44 15.7526C214.783 17.1892 212.615 19.1759 210.96 21.6936L214.303 23.8904ZM219.379 19.2514C221.38 18.1154 223.902 17.496 227.032 17.496V13.496C223.377 13.496 220.139 14.2206 217.404 15.7726L219.379 19.2514ZM227.032 17.496C228.652 17.496 230.168 17.7744 231.594 18.3227L233.029 14.5893C231.127 13.8576 229.123 13.496 227.032 13.496V17.496ZM231.679 18.3534C233.192 18.8576 234.513 19.5773 235.661 20.5065L238.178 17.3975C236.638 16.1507 234.887 15.2064 232.944 14.5586L231.679 18.3534ZM235.661 20.5065C236.827 21.4506 237.795 22.5567 238.571 23.8319L241.988 21.7521C240.972 20.0833 239.7 18.6294 238.178 17.3975L235.661 20.5065ZM238.592 23.8658C239.33 25.0258 239.812 26.3256 240.029 27.7891L243.986 27.2029C243.691 25.2104 243.021 23.3742 241.967 21.7182L238.592 23.8658ZM267.468 4.456V2.456H265.468V4.456H267.468ZM267.468 73H265.468V75H267.468V73ZM281.58 73V75H283.58V73H281.58ZM281.58 24.904V22.904H279.58V24.904H281.58ZM281.772 24.904L283.66 24.2445L283.192 22.904H281.772V24.904ZM298.572 73L296.684 73.6595L297.152 75H298.572V73ZM310.188 73V75H311.612L312.078 73.6537L310.188 73ZM326.988 24.424V22.424H325.563L325.098 23.7703L326.988 24.424ZM327.18 24.424H329.18V22.424H327.18V24.424ZM327.18 73H325.18V75H327.18V73ZM341.292 73V75H343.292V73H341.292ZM341.292 4.456H343.292V2.456H341.292V4.456ZM320.076 4.456V2.456H318.618L318.172 3.84335L320.076 4.456ZM304.908 51.592V53.592H306.365L306.812 52.2046L304.908 51.592ZM304.716 51.592L302.822 52.236L303.283 53.592H304.716V51.592ZM288.684 4.456L290.577 3.81198L290.116 2.456H288.684V4.456ZM265.468 4.456V73H269.468V4.456H265.468ZM267.468 75H281.58V71H267.468V75ZM283.58 73V24.904H279.58V73H283.58ZM281.58 26.904H281.772V22.904H281.58V26.904ZM279.884 25.5635L296.684 73.6595L300.46 72.3405L283.66 24.2445L279.884 25.5635ZM298.572 75H310.188V71H298.572V75ZM312.078 73.6537L328.878 25.0777L325.098 23.7703L308.298 72.3463L312.078 73.6537ZM326.988 26.424H327.18V22.424H326.988V26.424ZM325.18 24.424V73H329.18V24.424H325.18ZM327.18 75H341.292V71H327.18V75ZM343.292 73V4.456H339.292V73H343.292ZM341.292 2.456H320.076V6.456H341.292V2.456ZM318.172 3.84335L303.004 50.9794L306.812 52.2046L321.98 5.06864L318.172 3.84335ZM304.908 49.592H304.716V53.592H304.908V49.592ZM306.609 50.948L290.577 3.81198L286.79 5.10001L302.822 52.236L306.609 50.948ZM288.684 2.456H267.468V6.456H288.684V2.456ZM364.834 50.248H366.834V48.248H364.834V50.248ZM350.242 50.248V48.248H348.272L348.242 50.2177L350.242 50.248ZM352.546 61.192L350.772 62.1159L350.772 62.1159L352.546 61.192ZM358.978 68.776L357.79 70.3851L357.799 70.3918L357.808 70.3984L358.978 68.776ZM368.386 73.096L368.903 71.1641L368.891 71.1609L368.879 71.1578L368.386 73.096ZM391.714 72.904L391.133 70.9902L391.123 70.9932L391.714 72.904ZM400.642 68.392L401.901 69.9455L401.906 69.9417L400.642 68.392ZM406.114 61.384L404.291 60.5597L404.291 60.5597L406.114 61.384ZM405.442 43.24L403.758 44.3193L403.774 44.3446L403.791 44.3694L405.442 43.24ZM399.682 37.288L400.78 35.6166L400.78 35.6166L399.682 37.288ZM392.866 34.12L392.266 36.028L392.298 36.038L392.33 36.047L392.866 34.12ZM387.586 32.68L387.094 34.6186L387.143 34.6311L387.193 34.6412L387.586 32.68ZM377.122 29.992L376.603 31.9237L376.615 31.9267L377.122 29.992ZM370.882 27.88L370.019 29.6843L370.033 29.6913L370.048 29.6981L370.882 27.88ZM367.906 25.576L366.202 26.6242L366.202 26.6242L367.906 25.576ZM368.098 18.664L366.433 17.5546L366.433 17.5546L368.098 18.664ZM370.498 16.264L369.438 14.568L369.413 14.5836L369.388 14.5999L370.498 16.264ZM382.594 15.016L382.186 16.974L382.193 16.9756L382.201 16.9772L382.594 15.016ZM386.818 16.648L385.75 18.339L385.75 18.339L386.818 16.648ZM389.698 19.816L387.926 20.744L387.943 20.7765L387.961 20.8083L389.698 19.816ZM391.042 24.904L389.045 25.0288L389.163 26.904H391.042V24.904ZM405.634 24.904V26.904H407.634V24.904H405.634ZM403.33 14.824L401.557 15.7505L401.57 15.7748L401.583 15.7987L403.33 14.824ZM397.281 7.912L396.135 9.55046L396.135 9.55046L397.281 7.912ZM388.45 4.07199L387.955 6.01002L387.978 6.01565L388 6.02078L388.45 4.07199ZM368.962 4.07199L368.439 2.14154L368.439 2.14154L368.962 4.07199ZM360.706 7.912L359.547 6.28164L359.547 6.28164L360.706 7.912ZM354.754 14.44L353.027 13.4296L353.024 13.4363L353.02 13.4431L354.754 14.44ZM354.273 31.624L352.495 32.5387L352.511 32.5694L352.528 32.5996L354.273 31.624ZM358.978 37.096L357.761 38.6832L357.761 38.6832L358.978 37.096ZM365.506 40.744L364.771 42.6043L364.793 42.6127L364.814 42.6207L365.506 40.744ZM372.994 43.048L373.536 41.1231L373.508 41.115L373.479 41.1077L372.994 43.048ZM380.386 44.968L380.846 43.0218L380.846 43.0218L380.386 44.968ZM386.914 46.984L387.656 45.127L387.656 45.127L386.914 46.984ZM391.522 49.864L390.107 51.2782L390.126 51.2973L390.146 51.3159L391.522 49.864ZM392.002 58.696L393.545 59.9674L393.563 59.9459L393.58 59.9239L392.002 58.696ZM388.642 61.288L387.782 59.4823L387.782 59.4823L388.642 61.288ZM384.322 62.632L384.57 64.6166L384.61 64.6115L384.65 64.6048L384.322 62.632ZM374.242 62.248L373.71 64.176L373.741 64.1846L373.772 64.1922L374.242 62.248ZM369.346 60.04L368.133 61.6309L368.175 61.6628L368.219 61.6925L369.346 60.04ZM366.082 56.104L367.856 55.1813L367.856 55.1813L366.082 56.104ZM364.834 48.248H350.242V52.248H364.834V48.248ZM348.242 50.2177C348.174 54.7014 348.988 58.6915 350.772 62.1159L354.319 60.2681C352.903 57.5485 352.181 54.2426 352.241 50.2783L348.242 50.2177ZM350.772 62.1159C352.507 65.4477 354.848 68.2136 357.79 70.3851L360.165 67.1669C357.731 65.3704 355.784 63.0803 354.319 60.2681L350.772 62.1159ZM357.808 70.3984C360.778 72.5392 364.146 74.0807 367.892 75.0342L368.879 71.1578C365.585 70.3193 362.681 68.9808 360.147 67.1536L357.808 70.3984ZM367.868 75.0279C371.624 76.0339 375.478 76.536 379.426 76.536V72.536C375.821 72.536 372.315 72.0781 368.903 71.1641L367.868 75.0279ZM379.426 76.536C384.247 76.536 388.55 75.9753 392.304 74.8148L391.123 70.9932C387.837 72.0087 383.948 72.536 379.426 72.536V76.536ZM392.294 74.8178C396.071 73.6713 399.292 72.0609 401.901 69.9455L399.382 66.8385C397.255 68.5631 394.524 69.9607 391.133 70.9902L392.294 74.8178ZM401.906 69.9417C404.562 67.7751 406.584 65.1959 407.936 62.2083L404.291 60.5597C403.211 62.9481 401.585 65.0409 399.377 66.8423L401.906 69.9417ZM407.936 62.2083C409.276 59.2452 409.938 56.0501 409.938 52.648H405.938C405.938 55.5179 405.383 58.1468 404.291 60.5597L407.936 62.2083ZM409.938 52.648C409.938 48.526 409.044 44.9628 407.092 42.1106L403.791 44.3694C405.167 46.3812 405.938 49.09 405.938 52.648H409.938ZM407.125 42.1607C405.39 39.4537 403.278 37.2583 400.78 35.6166L398.583 38.9594C400.565 40.2617 402.293 42.0343 403.758 44.3193L407.125 42.1607ZM400.78 35.6166C398.387 34.0443 395.927 32.8947 393.401 32.193L392.33 36.047C394.412 36.6253 396.496 37.5877 398.583 38.9594L400.78 35.6166ZM393.465 32.212C391.202 31.5006 389.362 30.9957 387.978 30.7188L387.193 34.6412C388.369 34.8763 390.049 35.3314 392.266 36.028L393.465 32.212ZM388.077 30.7414C383.792 29.654 380.309 28.7594 377.628 28.0573L376.615 31.9267C379.31 32.6326 382.803 33.53 387.094 34.6186L388.077 30.7414ZM377.64 28.0603C375.067 27.3701 373.107 26.7 371.715 26.0619L370.048 29.6981C371.728 30.468 373.928 31.2059 376.603 31.9237L377.64 28.0603ZM371.744 26.0757C370.411 25.4381 369.825 24.8795 369.609 24.5278L366.202 26.6242C367.01 27.9365 368.408 28.9138 370.019 29.6843L371.744 26.0757ZM369.609 24.5278C369.351 24.1082 369.138 23.4196 369.138 22.312H365.138C365.138 23.8924 365.436 25.3798 366.202 26.6242L369.609 24.5278ZM369.138 22.312C369.138 21.1265 369.394 20.325 369.762 19.7734L366.433 17.5546C365.521 18.923 365.138 20.5535 365.138 22.312H369.138ZM369.762 19.7734C370.255 19.0331 370.867 18.4216 371.607 17.9281L369.388 14.5999C368.208 15.3864 367.22 16.3749 366.433 17.5546L369.762 19.7734ZM371.557 17.96C372.377 17.448 373.276 17.0862 374.27 16.8771L373.445 12.9629C372.007 13.2658 370.666 13.8 369.438 14.568L371.557 17.96ZM374.27 16.8771C375.353 16.649 376.431 16.536 377.506 16.536V12.536C376.148 12.536 374.794 12.679 373.445 12.9629L374.27 16.8771ZM377.506 16.536C379.249 16.536 380.805 16.6864 382.186 16.974L383.001 13.058C381.31 12.7056 379.474 12.536 377.506 12.536V16.536ZM382.201 16.9772C383.593 17.2556 384.766 17.718 385.75 18.339L387.885 14.957C386.437 14.042 384.794 13.4164 382.986 13.0548L382.201 16.9772ZM385.75 18.339C386.651 18.9086 387.376 19.694 387.926 20.744L391.469 18.888C390.611 17.25 389.416 15.9234 387.885 14.957L385.75 18.339ZM387.961 20.8083C388.536 21.8149 388.931 23.1909 389.045 25.0288L393.038 24.7792C392.896 22.5211 392.395 20.5051 391.434 18.8237L387.961 20.8083ZM391.042 26.904H405.634V22.904H391.042V26.904ZM407.634 24.904C407.634 20.6816 406.816 16.9669 405.076 13.8493L401.583 15.7987C402.915 18.1851 403.634 21.1903 403.634 24.904H407.634ZM405.102 13.8975C403.484 10.8025 401.256 8.2525 398.428 6.27353L396.135 9.55046C398.427 11.1555 400.231 13.2135 401.557 15.7505L405.102 13.8975ZM398.428 6.27353C395.639 4.32115 392.454 2.94355 388.899 2.12321L388 6.02078C391.101 6.73644 393.804 7.91884 396.135 9.55046L398.428 6.27353ZM388.944 2.13397C385.508 1.25827 381.917 0.823999 378.178 0.823999V4.824C381.606 4.824 384.863 5.22172 387.955 6.01002L388.944 2.13397ZM378.178 0.823999C374.923 0.823999 371.675 1.26505 368.439 2.14154L369.484 6.00245C372.392 5.21494 375.288 4.824 378.178 4.824V0.823999ZM368.439 2.14154C365.154 3.03112 362.184 4.40797 359.547 6.28164L361.864 9.54236C364.091 7.96003 366.625 6.77687 369.484 6.00245L368.439 2.14154ZM359.547 6.28164C356.88 8.17697 354.704 10.5659 353.027 13.4296L356.48 15.4504C357.875 13.0661 359.667 11.103 361.864 9.54236L359.547 6.28164ZM353.02 13.4431C351.343 16.3599 350.546 19.7575 350.546 23.56H354.546C354.546 20.3225 355.22 17.6401 356.487 15.4369L353.02 13.4431ZM350.546 23.56C350.546 26.9378 351.166 29.9548 352.495 32.5387L356.052 30.7093C355.077 28.8132 354.546 26.4542 354.546 23.56H350.546ZM352.528 32.5996C353.872 35.006 355.618 37.0404 357.761 38.6832L360.194 35.5088C358.497 34.2076 357.107 32.594 356.019 30.6484L352.528 32.5996ZM357.761 38.6832C359.839 40.2769 362.18 41.5816 364.771 42.6043L366.24 38.8837C363.967 37.9864 361.956 36.8591 360.194 35.5088L357.761 38.6832ZM364.814 42.6207C367.315 43.542 369.88 44.3311 372.508 44.9883L373.479 41.1077C370.987 40.4849 368.56 39.738 366.197 38.8673L364.814 42.6207ZM372.451 44.9729C374.973 45.6843 377.464 46.3314 379.925 46.9142L380.846 43.0218C378.443 42.4526 376.006 41.8197 373.536 41.1231L372.451 44.9729ZM379.925 46.9142C382.28 47.4719 384.359 48.1162 386.171 48.841L387.656 45.127C385.628 44.3158 383.355 43.6161 380.846 43.0218L379.925 46.9142ZM386.171 48.841C387.904 49.5344 389.191 50.3618 390.107 51.2782L392.936 48.4498C391.548 47.0622 389.763 45.9696 387.656 45.127L386.171 48.841ZM390.146 51.3159C390.918 52.0473 391.346 53.0036 391.346 54.376H395.346C395.346 52.0364 394.557 49.9847 392.897 48.4121L390.146 51.3159ZM391.346 54.376C391.346 55.7442 390.998 56.7288 390.423 57.4681L393.58 59.9239C394.797 58.3592 395.346 56.4638 395.346 54.376H391.346ZM390.458 57.4246C389.758 58.2739 388.876 58.9609 387.782 59.4823L389.501 63.0937C391.095 62.3351 392.453 61.2941 393.545 59.9674L390.458 57.4246ZM387.782 59.4823C386.614 60.0385 385.353 60.4325 383.993 60.6592L384.65 64.6048C386.362 64.3195 387.981 63.8175 389.501 63.0937L387.782 59.4823ZM384.073 60.6474C382.608 60.8307 381.251 60.92 380.002 60.92V64.92C381.44 64.92 382.963 64.8173 384.57 64.6166L384.073 60.6474ZM380.002 60.92C378.169 60.92 376.407 60.7133 374.711 60.3038L373.772 64.1922C375.788 64.6787 377.866 64.92 380.002 64.92V60.92ZM374.773 60.32C373.102 59.859 371.676 59.2087 370.472 58.3875L368.219 61.6925C369.831 62.7913 371.669 63.613 373.71 64.176L374.773 60.32ZM370.558 58.4491C369.464 57.6156 368.561 56.5378 367.856 55.1813L364.307 57.0267C365.266 58.8702 366.539 60.4164 368.133 61.6309L370.558 58.4491ZM367.856 55.1813C367.208 53.9344 366.834 52.3175 366.834 50.248H362.834C362.834 52.7865 363.291 55.0736 364.307 57.0267L367.856 55.1813Z" fill="black"/>
</svg>
