<svg width="408" height="91" viewBox="0 0 408 91" fill="none" xmlns="http://www.w3.org/2000/svg">
<path d="M16.696 35.712V15.168H28.408C30.136 15.168 31.8 15.296 33.4 15.552C35 15.808 36.408 16.32 37.624 17.088C38.84 17.792 39.8 18.816 40.504 20.16C41.272 21.504 41.656 23.264 41.656 25.44C41.656 27.616 41.272 29.376 40.504 30.72C39.8 32.064 38.84 33.12 37.624 33.888C36.408 34.592 35 35.072 33.4 35.328C31.8 35.584 30.136 35.712 28.408 35.712H16.696ZM1.624 3.456V72H16.696V47.424H32.536C36.824 47.424 40.472 46.816 43.48 45.6C46.488 44.32 48.92 42.656 50.776 40.608C52.696 38.56 54.072 36.224 54.904 33.6C55.8 30.912 56.248 28.192 56.248 25.44C56.248 22.624 55.8 19.904 54.904 17.28C54.072 14.656 52.696 12.32 50.776 10.272C48.92 8.224 46.488 6.592 43.48 5.376C40.472 4.096 36.824 3.456 32.536 3.456H1.624ZM64.5993 3.456V72H78.2313V3.456H64.5993ZM88.3893 37.632C88.5813 34.432 89.3813 31.776 90.7893 29.664C92.1973 27.552 93.9893 25.856 96.1653 24.576C98.3413 23.296 100.773 22.4 103.461 21.888C106.213 21.312 108.965 21.024 111.717 21.024C114.213 21.024 116.741 21.216 119.301 21.6C121.861 21.92 124.197 22.592 126.309 23.616C128.421 24.64 130.149 26.08 131.493 27.936C132.837 29.728 133.509 32.128 133.509 35.136V60.96C133.509 63.2 133.637 65.344 133.893 67.392C134.149 69.44 134.597 70.976 135.237 72H121.413C121.157 71.232 120.933 70.464 120.741 69.696C120.613 68.864 120.517 68.032 120.453 67.2C118.277 69.44 115.717 71.008 112.773 71.904C109.829 72.8 106.821 73.248 103.749 73.248C101.381 73.248 99.1733 72.96 97.1253 72.384C95.0773 71.808 93.2853 70.912 91.7493 69.696C90.2133 68.48 88.9973 66.944 88.1013 65.088C87.2693 63.232 86.8533 61.024 86.8533 58.464C86.8533 55.648 87.3333 53.344 88.2933 51.552C89.3173 49.696 90.5973 48.224 92.1333 47.136C93.7333 46.048 95.5253 45.248 97.5093 44.736C99.5573 44.16 101.605 43.712 103.653 43.392C105.701 43.072 107.717 42.816 109.701 42.624C111.685 42.432 113.445 42.144 114.981 41.76C116.517 41.376 117.733 40.832 118.629 40.128C119.525 39.36 119.941 38.272 119.877 36.864C119.877 35.392 119.621 34.24 119.109 33.408C118.661 32.512 118.021 31.84 117.189 31.392C116.421 30.88 115.493 30.56 114.405 30.432C113.381 30.24 112.261 30.144 111.045 30.144C108.357 30.144 106.245 30.72 104.709 31.872C103.173 33.024 102.277 34.944 102.021 37.632H88.3893ZM119.877 47.712C119.301 48.224 118.565 48.64 117.669 48.96C116.837 49.216 115.909 49.44 114.885 49.632C113.925 49.824 112.901 49.984 111.813 50.112C110.725 50.24 109.637 50.4 108.549 50.592C107.525 50.784 106.501 51.04 105.477 51.36C104.517 51.68 103.653 52.128 102.885 52.704C102.181 53.216 101.605 53.888 101.157 54.72C100.709 55.552 100.485 56.608 100.485 57.888C100.485 59.104 100.709 60.128 101.157 60.96C101.605 61.792 102.213 62.464 102.981 62.976C103.749 63.424 104.645 63.744 105.669 63.936C106.693 64.128 107.749 64.224 108.837 64.224C111.525 64.224 113.605 63.776 115.077 62.88C116.549 61.984 117.637 60.928 118.341 59.712C119.045 58.432 119.461 57.152 119.589 55.872C119.781 54.592 119.877 53.568 119.877 52.8V47.712ZM168.57 78.144L189.306 22.368H175.194L164.346 56.352H164.154L152.922 22.368H138.426L155.802 68.928C156.186 69.888 156.378 70.912 156.378 72C156.378 73.472 155.93 74.816 155.034 76.032C154.202 77.248 152.89 77.952 151.098 78.144C149.754 78.208 148.41 78.176 147.066 78.048C145.722 77.92 144.41 77.792 143.13 77.664V88.896C144.538 89.024 145.914 89.12 147.258 89.184C148.666 89.312 150.074 89.376 151.482 89.376C156.154 89.376 159.802 88.512 162.426 86.784C165.05 85.056 167.098 82.176 168.57 78.144ZM241.008 26.496H255.6C255.152 22.528 254.064 19.008 252.336 15.936C250.608 12.864 248.4 10.304 245.712 8.256C243.088 6.144 240.08 4.544 236.688 3.456C233.36 2.368 229.808 1.824 226.032 1.824C220.784 1.824 216.048 2.752 211.824 4.608C207.664 6.464 204.144 9.024 201.264 12.288C198.384 15.552 196.176 19.392 194.64 23.808C193.104 28.16 192.336 32.896 192.336 38.016C192.336 43.008 193.104 47.68 194.64 52.032C196.176 56.32 198.384 60.064 201.264 63.264C204.144 66.464 207.664 68.992 211.824 70.848C216.048 72.64 220.784 73.536 226.032 73.536C230.256 73.536 234.128 72.896 237.648 71.616C241.168 70.336 244.24 68.48 246.864 66.048C249.488 63.616 251.6 60.672 253.2 57.216C254.8 53.76 255.792 49.888 256.176 45.6H241.583C241.008 50.208 239.408 53.92 236.784 56.736C234.224 59.552 230.64 60.96 226.032 60.96C222.64 60.96 219.76 60.32 217.392 59.04C215.024 57.696 213.104 55.936 211.632 53.76C210.16 51.584 209.072 49.152 208.368 46.464C207.728 43.712 207.408 40.896 207.408 38.016C207.408 35.008 207.728 32.096 208.368 29.28C209.072 26.464 210.16 23.968 211.632 21.792C213.104 19.552 215.024 17.792 217.392 16.512C219.76 15.168 222.64 14.496 226.032 14.496C227.888 14.496 229.648 14.816 231.312 15.456C233.04 16.032 234.576 16.864 235.92 17.952C237.264 19.04 238.384 20.32 239.28 21.792C240.176 23.2 240.752 24.768 241.008 26.496ZM266.468 3.456V72H280.58V23.904H280.772L297.572 72H309.188L325.988 23.424H326.18V72H340.292V3.456H319.076L303.908 50.592H303.716L287.684 3.456H266.468ZM363.834 49.248H349.242C349.178 53.472 349.946 57.12 351.546 60.192C353.146 63.264 355.29 65.792 357.978 67.776C360.73 69.76 363.866 71.2 367.386 72.096C370.97 73.056 374.65 73.536 378.426 73.536C383.098 73.536 387.194 72.992 390.714 71.904C394.298 70.816 397.274 69.312 399.642 67.392C402.074 65.408 403.898 63.072 405.114 60.384C406.33 57.696 406.938 54.784 406.938 51.648C406.938 47.808 406.106 44.672 404.442 42.24C402.842 39.744 400.922 37.76 398.682 36.288C396.442 34.816 394.17 33.76 391.866 33.12C389.626 32.416 387.866 31.936 386.586 31.68C382.298 30.592 378.81 29.696 376.122 28.992C373.498 28.288 371.418 27.584 369.882 26.88C368.41 26.176 367.418 25.408 366.906 24.576C366.394 23.744 366.138 22.656 366.138 21.312C366.138 19.84 366.458 18.624 367.098 17.664C367.738 16.704 368.538 15.904 369.498 15.264C370.522 14.624 371.642 14.176 372.858 13.92C374.074 13.664 375.29 13.536 376.506 13.536C378.362 13.536 380.058 13.696 381.594 14.016C383.194 14.336 384.602 14.88 385.818 15.648C387.034 16.416 387.994 17.472 388.698 18.816C389.466 20.16 389.914 21.856 390.042 23.904H404.634C404.634 19.936 403.866 16.576 402.33 13.824C400.858 11.008 398.842 8.704 396.281 6.912C393.722 5.12 390.778 3.84 387.45 3.07199C384.186 2.24 380.762 1.824 377.178 1.824C374.106 1.824 371.034 2.24 367.962 3.07199C364.89 3.904 362.138 5.184 359.706 6.912C357.274 8.64 355.29 10.816 353.754 13.44C352.282 16 351.546 19.04 351.546 22.56C351.546 25.696 352.122 28.384 353.273 30.624C354.49 32.8 356.058 34.624 357.978 36.096C359.898 37.568 362.074 38.784 364.506 39.744C366.938 40.64 369.434 41.408 371.994 42.048C374.49 42.752 376.954 43.392 379.386 43.968C381.818 44.544 383.994 45.216 385.914 45.984C387.834 46.752 389.37 47.712 390.522 48.864C391.738 50.016 392.346 51.52 392.346 53.376C392.346 55.104 391.898 56.544 391.002 57.696C390.106 58.784 388.986 59.648 387.642 60.288C386.298 60.928 384.858 61.376 383.322 61.632C381.786 61.824 380.346 61.92 379.002 61.92C377.018 61.92 375.098 61.696 373.242 61.248C371.386 60.736 369.754 60 368.346 59.04C367.002 58.016 365.914 56.704 365.082 55.104C364.25 53.504 363.834 51.552 363.834 49.248Z" fill="white"/>
<path d="M16.696 35.712H15.696V36.712H16.696V35.712ZM16.696 15.168V14.168H15.696V15.168H16.696ZM33.4 15.552L33.242 16.5394L33.242 16.5394L33.4 15.552ZM37.624 17.088L37.09 17.9335L37.1063 17.9438L37.123 17.9534L37.624 17.088ZM40.504 20.16L39.6182 20.624L39.6267 20.6402L39.6358 20.6561L40.504 20.16ZM40.504 30.72L39.6358 30.2239L39.6267 30.2398L39.6182 30.256L40.504 30.72ZM37.624 33.888L38.125 34.7534L38.1417 34.7438L38.158 34.7335L37.624 33.888ZM33.4 35.328L33.242 34.3406L33.242 34.3406L33.4 35.328ZM1.624 3.456V2.456H0.624001V3.456H1.624ZM1.624 72H0.624001V73H1.624V72ZM16.696 72V73H17.696V72H16.696ZM16.696 47.424V46.424H15.696V47.424H16.696ZM43.48 45.6L43.8548 46.5271L43.8632 46.5237L43.8716 46.5202L43.48 45.6ZM50.776 40.608L50.0465 39.9241L50.0407 39.9302L50.035 39.9365L50.776 40.608ZM54.904 33.6L53.9553 33.2838L53.953 33.2907L53.9508 33.2978L54.904 33.6ZM54.904 17.28L53.9508 17.5822L53.9541 17.5927L53.9577 17.6031L54.904 17.28ZM50.776 10.272L50.035 10.9435L50.0407 10.9498L50.0465 10.9559L50.776 10.272ZM43.48 5.376L43.0884 6.29615L43.0968 6.29971L43.1052 6.30311L43.48 5.376ZM17.696 35.712V15.168H15.696V35.712H17.696ZM16.696 16.168H28.408V14.168H16.696V16.168ZM28.408 16.168C30.0866 16.168 31.6976 16.2923 33.242 16.5394L33.558 14.5646C31.9024 14.2997 30.1854 14.168 28.408 14.168V16.168ZM33.242 16.5394C34.7253 16.7768 36.0021 17.2464 37.09 17.9335L38.158 16.2425C36.8139 15.3936 35.2747 14.8392 33.558 14.5646L33.242 16.5394ZM37.123 17.9534C38.1622 18.5551 38.9946 19.4336 39.6182 20.624L41.3898 19.696C40.6054 18.1984 39.5178 17.0289 38.125 16.2226L37.123 17.9534ZM39.6358 20.6561C40.2894 21.8 40.656 23.3711 40.656 25.44H42.656C42.656 23.1569 42.2546 21.208 41.3722 19.6639L39.6358 20.6561ZM40.656 25.44C40.656 27.5089 40.2894 29.08 39.6358 30.2239L41.3722 31.2161C42.2546 29.672 42.656 27.7231 42.656 25.44H40.656ZM39.6182 30.256C38.9912 31.453 38.1489 32.3737 37.09 33.0425L38.158 34.7335C39.5311 33.8663 40.6088 32.675 41.3898 31.184L39.6182 30.256ZM37.123 33.0226C36.0278 33.6566 34.7394 34.101 33.242 34.3406L33.558 36.3154C35.2606 36.043 36.7882 35.5274 38.125 34.7534L37.123 33.0226ZM33.242 34.3406C31.6976 34.5877 30.0866 34.712 28.408 34.712V36.712C30.1854 36.712 31.9024 36.5803 33.558 36.3154L33.242 34.3406ZM28.408 34.712H16.696V36.712H28.408V34.712ZM0.624001 3.456V72H2.624V3.456H0.624001ZM1.624 73H16.696V71H1.624V73ZM17.696 72V47.424H15.696V72H17.696ZM16.696 48.424H32.536V46.424H16.696V48.424ZM32.536 48.424C36.9133 48.424 40.6961 47.804 43.8548 46.5271L43.1052 44.6729C40.2479 45.828 36.7347 46.424 32.536 46.424V48.424ZM43.8716 46.5202C46.9886 45.1938 49.5477 43.4525 51.517 41.2795L50.035 39.9365C48.2923 41.8595 45.9874 43.4462 43.0884 44.6798L43.8716 46.5202ZM51.5055 41.2919C53.5256 39.1372 54.9792 36.6715 55.8572 33.9022L53.9508 33.2978C53.1648 35.7765 51.8664 37.9828 50.0465 39.9241L51.5055 41.2919ZM55.8527 33.9162C56.7817 31.1293 57.248 28.3027 57.248 25.44H55.248C55.248 28.0813 54.8183 30.6947 53.9553 33.2838L55.8527 33.9162ZM57.248 25.44C57.248 22.5158 56.7824 19.6865 55.8504 16.9569L53.9577 17.6031C54.8176 20.1215 55.248 22.7322 55.248 25.44H57.248ZM55.8572 16.9778C54.9792 14.2085 53.5256 11.7428 51.5055 9.58806L50.0465 10.9559C51.8664 12.8972 53.1648 15.1035 53.9508 17.5822L55.8572 16.9778ZM51.517 9.60048C49.5436 7.42294 46.9784 5.71162 43.8548 4.44889L43.1052 6.30311C45.9976 7.47237 48.2964 9.02506 50.035 10.9435L51.517 9.60048ZM43.8716 4.45585C40.7076 3.1095 36.9186 2.456 32.536 2.456V4.456C36.7294 4.456 40.2364 5.0825 43.0884 6.29615L43.8716 4.45585ZM32.536 2.456H1.624V4.456H32.536V2.456ZM64.5993 3.456V2.456H63.5993V3.456H64.5993ZM64.5993 72H63.5993V73H64.5993V72ZM78.2313 72V73H79.2313V72H78.2313ZM78.2313 3.456H79.2313V2.456H78.2313V3.456ZM63.5993 3.456V72H65.5993V3.456H63.5993ZM64.5993 73H78.2313V71H64.5993V73ZM79.2313 72V3.456H77.2313V72H79.2313ZM78.2313 2.456H64.5993V4.456H78.2313V2.456ZM88.3893 37.632L87.391 37.5721L87.3275 38.632H88.3893V37.632ZM90.7893 29.664L91.6213 30.2187L91.6213 30.2187L90.7893 29.664ZM96.1653 24.576L96.6723 25.4379L96.6723 25.4379L96.1653 24.576ZM103.461 21.888L103.648 22.8703L103.657 22.8686L103.666 22.8668L103.461 21.888ZM119.301 21.6L119.153 22.5889L119.165 22.5908L119.177 22.5923L119.301 21.6ZM126.309 23.616L125.873 24.5158L125.873 24.5158L126.309 23.616ZM131.493 27.936L130.683 28.5225L130.688 28.5293L130.693 28.536L131.493 27.936ZM133.893 67.392L132.901 67.516L132.901 67.516L133.893 67.392ZM135.237 72V73H137.041L136.085 71.47L135.237 72ZM121.413 72L120.465 72.3162L120.692 73H121.413V72ZM120.741 69.696L119.753 69.8481L119.76 69.8937L119.771 69.9385L120.741 69.696ZM120.453 67.2L121.45 67.1233L121.28 64.9134L119.736 66.5032L120.453 67.2ZM112.773 71.904L113.064 72.8607L112.773 71.904ZM97.1253 72.384L97.396 71.4213L97.396 71.4213L97.1253 72.384ZM91.7493 69.696L91.1285 70.48L91.1285 70.48L91.7493 69.696ZM88.1013 65.088L87.1887 65.4971L87.1945 65.51L87.2007 65.5227L88.1013 65.088ZM88.2933 51.552L87.4176 51.0689L87.4118 51.0798L88.2933 51.552ZM92.1333 47.136L91.5709 46.3091L91.563 46.3144L91.5552 46.32L92.1333 47.136ZM97.5093 44.736L97.7591 45.7043L97.7696 45.7016L97.78 45.6987L97.5093 44.736ZM103.653 43.392L103.808 44.38L103.808 44.38L103.653 43.392ZM109.701 42.624L109.605 41.6286L109.605 41.6286L109.701 42.624ZM114.981 41.76L114.739 40.7899L114.739 40.7899L114.981 41.76ZM118.629 40.128L119.247 40.9143L119.264 40.9011L119.28 40.8873L118.629 40.128ZM119.877 36.864H118.877V36.8867L118.878 36.9094L119.877 36.864ZM119.109 33.408L118.215 33.8552L118.235 33.8946L118.258 33.9321L119.109 33.408ZM117.189 31.392L116.635 32.224L116.674 32.2502L116.715 32.2725L117.189 31.392ZM114.405 30.432L114.221 31.4149L114.255 31.4212L114.288 31.4251L114.405 30.432ZM102.021 37.632V38.632H102.931L103.017 37.7268L102.021 37.632ZM119.877 47.712H120.877V45.4852L119.213 46.9646L119.877 47.712ZM117.669 48.96L117.963 49.9158L117.985 49.9092L118.006 49.9017L117.669 48.96ZM114.885 49.632L114.701 48.6491L114.689 48.6514L114.885 49.632ZM111.813 50.112L111.696 49.1188L111.696 49.1188L111.813 50.112ZM108.549 50.592L108.375 49.6072L108.365 49.6091L108.549 50.592ZM105.477 51.36L105.179 50.4055L105.17 50.4083L105.161 50.4113L105.477 51.36ZM102.885 52.704L103.473 53.5127L103.479 53.5084L103.485 53.504L102.885 52.704ZM101.157 60.96L100.277 61.4341L100.277 61.4341L101.157 60.96ZM102.981 62.976L102.427 63.808L102.451 63.8247L102.477 63.8398L102.981 62.976ZM105.669 63.936L105.854 62.9531L105.854 62.9531L105.669 63.936ZM115.077 62.88L114.557 62.0258L114.557 62.0258L115.077 62.88ZM118.341 59.712L119.207 60.213L119.212 60.2035L119.217 60.1939L118.341 59.712ZM119.589 55.872L118.6 55.7237L118.597 55.748L118.594 55.7725L119.589 55.872ZM89.3875 37.6919C89.5716 34.6228 90.3342 32.1494 91.6213 30.2187L89.9572 29.1093C88.4283 31.4026 87.5909 34.2412 87.391 37.5721L89.3875 37.6919ZM91.6213 30.2187C92.946 28.2316 94.6272 26.6409 96.6723 25.4379L95.6582 23.7141C93.3513 25.0711 91.4485 26.8724 89.9572 29.1093L91.6213 30.2187ZM96.6723 25.4379C98.7414 24.2208 101.064 23.3627 103.648 22.8703L103.274 20.9057C100.483 21.4373 97.9411 22.3712 95.6582 23.7141L96.6723 25.4379ZM103.666 22.8668C106.352 22.3046 109.036 22.024 111.717 22.024V20.024C108.895 20.024 106.074 20.3194 103.256 20.9092L103.666 22.8668ZM111.717 22.024C114.162 22.024 116.64 22.212 119.153 22.5889L119.45 20.6111C116.842 20.22 114.265 20.024 111.717 20.024V22.024ZM119.177 22.5923C121.639 22.9001 123.869 23.544 125.873 24.5158L126.746 22.7162C124.526 21.64 122.083 20.9399 119.425 20.6077L119.177 22.5923ZM125.873 24.5158C127.84 25.4696 129.439 26.8035 130.683 28.5225L132.303 27.3495C130.86 25.3565 129.002 23.8104 126.746 22.7162L125.873 24.5158ZM130.693 28.536C131.869 30.1041 132.509 32.2709 132.509 35.136H134.509C134.509 31.9851 133.805 29.3519 132.293 27.336L130.693 28.536ZM132.509 35.136V60.96H134.509V35.136H132.509ZM132.509 60.96C132.509 63.238 132.639 65.4236 132.901 67.516L134.886 67.268C134.635 65.2644 134.509 63.162 134.509 60.96H132.509ZM132.901 67.516C133.164 69.6199 133.636 71.3247 134.389 72.53L136.085 71.47C135.559 70.6273 135.135 69.2601 134.886 67.268L132.901 67.516ZM135.237 71H121.413V73H135.237V71ZM122.362 71.6838C122.114 70.9395 121.897 70.1961 121.711 69.4535L119.771 69.9385C119.969 70.7319 120.201 71.5245 120.465 72.3162L122.362 71.6838ZM121.73 69.5439C121.605 68.7367 121.512 67.9299 121.45 67.1233L119.456 67.2767C119.522 68.1341 119.621 68.9913 119.753 69.8481L121.73 69.5439ZM119.736 66.5032C117.676 68.6238 115.262 70.1013 112.482 70.9473L113.064 72.8607C116.173 71.9147 118.879 70.2562 121.171 67.8968L119.736 66.5032ZM112.482 70.9473C109.632 71.8147 106.722 72.248 103.749 72.248V74.248C106.92 74.248 110.026 73.7853 113.064 72.8607L112.482 70.9473ZM103.749 72.248C101.463 72.248 99.3466 71.9699 97.396 71.4213L96.8545 73.3467C98.9999 73.9501 101.3 74.248 103.749 74.248V72.248ZM97.396 71.4213C95.4643 70.8781 93.7936 70.039 92.37 68.912L91.1285 70.48C92.7769 71.785 94.6902 72.7379 96.8545 73.3467L97.396 71.4213ZM92.37 68.912C90.9586 67.7946 89.8356 66.3804 89.0018 64.6533L87.2007 65.5227C88.1589 67.5076 89.4679 69.1654 91.1285 70.48L92.37 68.912ZM89.0138 64.6789C88.2523 62.9803 87.8533 60.9183 87.8533 58.464H85.8533C85.8533 61.1297 86.2862 63.4837 87.1887 65.4971L89.0138 64.6789ZM87.8533 58.464C87.8533 55.7526 88.3167 53.6259 89.1747 52.0242L87.4118 51.0798C86.3498 53.0621 85.8533 55.5434 85.8533 58.464H87.8533ZM89.1688 52.0351C90.1293 50.2943 91.313 48.9425 92.7113 47.952L91.5552 46.32C89.8815 47.5055 88.5053 49.0977 87.4177 51.0689L89.1688 52.0351ZM92.6956 47.9629C94.1948 46.9434 95.88 46.1892 97.7591 45.7043L97.2594 43.7677C95.1705 44.3068 93.2717 45.1526 91.5709 46.3091L92.6956 47.9629ZM97.78 45.6987C99.7907 45.1331 101.8 44.6937 103.808 44.38L103.499 42.404C101.411 42.7303 99.3238 43.1869 97.2385 43.7733L97.78 45.6987ZM103.808 44.38C105.837 44.0629 107.834 43.8094 109.798 43.6193L109.605 41.6286C107.601 41.8226 105.565 42.0811 103.499 42.404L103.808 44.38ZM109.798 43.6193C111.819 43.4237 113.629 43.1288 115.224 42.7301L114.739 40.7899C113.261 41.1592 111.552 41.4403 109.605 41.6286L109.798 43.6193ZM115.224 42.7301C116.847 42.3244 118.206 41.7323 119.247 40.9143L118.011 39.3417C117.26 39.9317 116.188 40.4276 114.739 40.7899L115.224 42.7301ZM119.28 40.8873C120.456 39.8791 120.951 38.4673 120.876 36.8186L118.878 36.9094C118.931 38.0767 118.594 38.8409 117.978 39.3687L119.28 40.8873ZM120.877 36.864C120.877 35.2941 120.607 33.9341 119.961 32.8839L118.258 33.9321C118.635 34.5459 118.877 35.4899 118.877 36.864H120.877ZM120.004 32.9608C119.469 31.8922 118.688 31.0632 117.663 30.5115L116.715 32.2725C117.355 32.6168 117.853 33.1318 118.215 33.8552L120.004 32.9608ZM117.744 30.5599C116.822 29.9456 115.738 29.5818 114.522 29.4388L114.288 31.4251C115.249 31.5381 116.02 31.8144 116.635 32.224L117.744 30.5599ZM114.59 29.4491C113.496 29.244 112.313 29.144 111.045 29.144V31.144C112.209 31.144 113.267 31.236 114.221 31.4149L114.59 29.4491ZM111.045 29.144C108.225 29.144 105.876 29.7473 104.109 31.072L105.309 32.672C106.615 31.6927 108.489 31.144 111.045 31.144V29.144ZM104.109 31.072C102.269 32.4525 101.297 34.6861 101.026 37.5372L103.017 37.7268C103.257 35.2019 104.078 33.5955 105.309 32.672L104.109 31.072ZM102.021 36.632H88.3893V38.632H102.021V36.632ZM119.213 46.9646C118.752 47.3739 118.136 47.7316 117.333 48.0183L118.006 49.9017C118.995 49.5484 119.85 49.074 120.542 48.4594L119.213 46.9646ZM117.375 48.0042C116.585 48.2472 115.695 48.4628 114.701 48.6491L115.07 50.6149C116.124 50.4172 117.089 50.1848 117.963 49.9158L117.375 48.0042ZM114.689 48.6514C113.758 48.8376 112.761 48.9936 111.696 49.1188L111.93 51.1051C113.042 50.9744 114.092 50.8104 115.081 50.6126L114.689 48.6514ZM111.696 49.1188C110.589 49.2491 109.482 49.4119 108.375 49.6072L108.723 51.5768C109.792 51.3881 110.861 51.2309 111.93 51.1051L111.696 49.1188ZM108.365 49.6091C107.301 49.8086 106.239 50.0742 105.179 50.4055L105.776 52.3145C106.763 52.0058 107.749 51.7594 108.734 51.5749L108.365 49.6091ZM105.161 50.4113C104.105 50.7635 103.144 51.2601 102.285 51.904L103.485 53.504C104.163 52.9959 104.93 52.5965 105.793 52.3087L105.161 50.4113ZM102.297 51.8953C101.462 52.5028 100.79 53.2933 100.277 54.2459L102.038 55.1941C102.421 54.4827 102.901 53.9292 103.473 53.5127L102.297 51.8953ZM100.277 54.2459C99.7275 55.2661 99.4853 56.4986 99.4853 57.888H101.485C101.485 56.7174 101.691 55.8379 102.038 55.1941L100.277 54.2459ZM99.4853 57.888C99.4853 59.2233 99.731 60.4205 100.277 61.4341L102.038 60.4859C101.687 59.8355 101.485 58.9847 101.485 57.888H99.4853ZM100.277 61.4341C100.801 62.4067 101.519 63.203 102.427 63.808L103.536 62.1439C102.908 61.725 102.41 61.1773 102.038 60.4859L100.277 61.4341ZM102.477 63.8398C103.36 64.3544 104.367 64.7093 105.485 64.9189L105.854 62.9531C104.923 62.7787 104.139 62.4936 103.485 62.1122L102.477 63.8398ZM105.485 64.9189C106.572 65.1228 107.69 65.224 108.837 65.224V63.224C107.808 63.224 106.814 63.1332 105.854 62.9531L105.485 64.9189ZM108.837 65.224C111.615 65.224 113.904 64.7648 115.597 63.7342L114.557 62.0258C113.306 62.7872 111.436 63.224 108.837 63.224V65.224ZM115.597 63.7342C117.18 62.7707 118.402 61.6031 119.207 60.213L117.476 59.211C116.873 60.2529 115.918 61.1973 114.557 62.0258L115.597 63.7342ZM119.217 60.1939C119.978 58.8117 120.441 57.4027 120.584 55.9715L118.594 55.7725C118.481 56.9013 118.113 58.0523 117.465 59.2301L119.217 60.1939ZM120.578 56.0203C120.773 54.7196 120.877 53.6399 120.877 52.8H118.877C118.877 53.4961 118.789 54.4644 118.6 55.7237L120.578 56.0203ZM120.877 52.8V47.712H118.877V52.8H120.877ZM168.57 78.144L167.633 77.7955L167.631 77.8011L168.57 78.144ZM189.306 22.368L190.244 22.7165L190.745 21.368H189.306V22.368ZM175.194 22.368V21.368H174.464L174.242 22.0639L175.194 22.368ZM164.346 56.352V57.352H165.077L165.299 56.6561L164.346 56.352ZM164.154 56.352L163.205 56.6658L163.432 57.352H164.154V56.352ZM152.922 22.368L153.872 22.0542L153.645 21.368H152.922V22.368ZM138.426 22.368V21.368H136.986L137.489 22.7176L138.426 22.368ZM155.802 68.928L154.865 69.2776L154.869 69.2886L154.874 69.2994L155.802 68.928ZM155.034 76.032L154.229 75.4388L154.219 75.4529L154.209 75.4673L155.034 76.032ZM151.098 78.144L151.146 79.1429L151.175 79.1415L151.205 79.1383L151.098 78.144ZM147.066 78.048L147.161 77.0525L147.161 77.0525L147.066 78.048ZM143.13 77.664L143.23 76.669L142.13 76.559V77.664H143.13ZM143.13 88.896H142.13V89.8092L143.04 89.8919L143.13 88.896ZM147.258 89.184L147.349 88.1881L147.327 88.1862L147.306 88.1851L147.258 89.184ZM162.426 86.784L162.976 87.6192L162.976 87.6192L162.426 86.784ZM169.508 78.4925L190.244 22.7165L188.369 22.0195L167.633 77.7955L169.508 78.4925ZM189.306 21.368H175.194V23.368H189.306V21.368ZM174.242 22.0639L163.394 56.0479L165.299 56.6561L176.147 22.6721L174.242 22.0639ZM164.346 55.352H164.154V57.352H164.346V55.352ZM165.104 56.0382L153.872 22.0542L151.973 22.6818L163.205 56.6658L165.104 56.0382ZM152.922 21.368H138.426V23.368H152.922V21.368ZM137.489 22.7176L154.865 69.2776L156.739 68.5784L139.363 22.0184L137.489 22.7176ZM154.874 69.2994C155.208 70.1352 155.378 71.0325 155.378 72H157.378C157.378 70.7915 157.164 69.6408 156.731 68.5566L154.874 69.2994ZM155.378 72C155.378 73.2526 155.002 74.3898 154.229 75.4388L155.839 76.6252C156.858 75.2422 157.378 73.6914 157.378 72H155.378ZM154.209 75.4673C153.579 76.3886 152.564 76.9813 150.992 77.1497L151.205 79.1383C153.217 78.9227 154.826 78.1074 155.86 76.5967L154.209 75.4673ZM151.051 77.1451C149.754 77.2069 148.458 77.176 147.161 77.0525L146.971 79.0435C148.363 79.176 149.754 79.2091 151.146 79.1429L151.051 77.1451ZM147.161 77.0525C145.819 76.9246 144.508 76.7968 143.23 76.669L143.031 78.659C144.312 78.7872 145.626 78.9154 146.971 79.0435L147.161 77.0525ZM142.13 77.664V88.896H144.13V77.664H142.13ZM143.04 89.8919C144.461 90.0211 145.852 90.1182 147.211 90.1829L147.306 88.1851C145.977 88.1218 144.615 88.0269 143.221 87.9001L143.04 89.8919ZM147.168 90.1799C148.606 90.3106 150.044 90.376 151.482 90.376V88.376C150.105 88.376 148.727 88.3134 147.349 88.1881L147.168 90.1799ZM151.482 90.376C156.26 90.376 160.128 89.4952 162.976 87.6192L161.876 85.9488C159.477 87.5288 156.048 88.376 151.482 88.376V90.376ZM162.976 87.6192C165.835 85.7367 167.991 82.648 169.51 78.4869L167.631 77.8011C166.206 81.704 164.266 84.3753 161.876 85.9488L162.976 87.6192ZM241.008 26.496L240.018 26.6425L240.145 27.496H241.008V26.496ZM255.6 26.496V27.496H256.719L256.593 26.3838L255.6 26.496ZM252.336 15.936L253.207 15.4457L253.207 15.4457L252.336 15.936ZM245.712 8.256L245.084 9.03501L245.095 9.04336L245.105 9.05143L245.712 8.256ZM236.688 3.456L236.377 4.40651L236.382 4.40821L236.688 3.456ZM211.824 4.608L211.421 3.69246L211.416 3.69477L211.824 4.608ZM201.264 12.288L202.013 12.9496L202.013 12.9496L201.264 12.288ZM194.64 23.808L195.583 24.1408L195.584 24.1365L194.64 23.808ZM194.64 52.032L193.696 52.3648L193.698 52.3692L194.64 52.032ZM201.264 63.264L202.007 62.595L202.007 62.595L201.264 63.264ZM211.824 70.848L211.416 71.7612L211.424 71.765L211.433 71.7686L211.824 70.848ZM237.648 71.616L237.989 72.5558L237.989 72.5558L237.648 71.616ZM246.864 66.048L246.184 65.3146L246.184 65.3146L246.864 66.048ZM253.2 57.216L254.107 57.6361L254.107 57.6361L253.2 57.216ZM256.176 45.6L257.172 45.6892L257.269 44.6H256.176V45.6ZM241.583 45.6V44.6H240.701L240.591 45.476L241.583 45.6ZM236.784 56.736L236.052 56.0542L236.044 56.0633L236.784 56.736ZM217.392 59.04L216.898 59.9097L216.907 59.9148L216.916 59.9197L217.392 59.04ZM211.632 53.76L210.803 54.3203L210.803 54.3203L211.632 53.76ZM208.368 46.464L207.393 46.6905L207.397 46.704L207.4 46.7174L208.368 46.464ZM208.368 29.28L207.397 29.0375L207.395 29.0479L207.392 29.0584L208.368 29.28ZM211.632 21.792L212.46 22.3524L212.467 22.3412L211.632 21.792ZM217.392 16.512L217.867 17.3917L217.876 17.3868L217.885 17.3817L217.392 16.512ZM231.312 15.456L230.953 16.3893L230.974 16.3975L230.995 16.4047L231.312 15.456ZM239.28 21.792L238.425 22.3119L238.43 22.3205L238.436 22.3289L239.28 21.792ZM241.008 27.496H255.6V25.496H241.008V27.496ZM256.593 26.3838C256.132 22.3005 255.009 18.6488 253.207 15.4457L251.464 16.4263C253.118 19.3672 254.171 22.7555 254.606 26.6082L256.593 26.3838ZM253.207 15.4457C251.415 12.2602 249.119 9.59469 246.318 7.46057L245.105 9.05143C247.68 11.0133 249.8 13.4678 251.464 16.4263L253.207 15.4457ZM246.339 7.47698C243.613 5.28364 240.495 3.6271 236.993 2.50378L236.382 4.40821C239.664 5.46089 242.562 7.00435 245.084 9.03501L246.339 7.47698ZM236.998 2.5055C233.562 1.38223 229.905 0.823999 226.032 0.823999V2.824C229.71 2.824 233.157 3.35376 236.377 4.40649L236.998 2.5055ZM226.032 0.823999C220.664 0.823999 215.788 1.7736 211.421 3.69248L212.226 5.52352C216.307 3.73039 220.903 2.824 226.032 2.824V0.823999ZM211.416 3.69477C207.131 5.60636 203.493 8.24995 200.514 11.6264L202.013 12.9496C204.794 9.79804 208.196 7.32163 212.231 5.52123L211.416 3.69477ZM200.514 11.6264C197.542 14.9947 195.27 18.95 193.695 23.4795L195.584 24.1365C197.081 19.834 199.225 16.1092 202.013 12.9496L200.514 11.6264ZM193.697 23.4752C192.119 27.9451 191.336 32.795 191.336 38.016H193.336C193.336 32.997 194.088 28.3749 195.582 24.1408L193.697 23.4752ZM191.336 38.016C191.336 43.1121 192.12 47.8975 193.697 52.3648L195.582 51.6992C194.087 47.4625 193.336 42.9039 193.336 38.016H191.336ZM193.698 52.3692C195.275 56.7724 197.548 60.6308 200.52 63.933L202.007 62.595C199.219 59.4972 197.076 55.8676 195.581 51.6948L193.698 52.3692ZM200.52 63.933C203.499 67.243 207.136 69.8516 211.416 71.7612L212.231 69.9348C208.191 68.1324 204.788 65.685 202.007 62.595L200.52 63.933ZM211.433 71.7686C215.797 73.62 220.668 74.536 226.032 74.536V72.536C220.899 72.536 216.298 71.66 212.214 69.9274L211.433 71.7686ZM226.032 74.536C230.357 74.536 234.347 73.8804 237.989 72.5558L237.306 70.6762C233.908 71.9116 230.154 72.536 226.032 72.536V74.536ZM237.989 72.5558C241.629 71.2324 244.817 69.3083 247.543 66.7814L246.184 65.3146C243.662 67.6517 240.706 69.4396 237.306 70.6762L237.989 72.5558ZM247.543 66.7814C250.269 64.2552 252.456 61.2027 254.107 57.6361L252.292 56.7959C250.743 60.1413 248.706 62.9768 246.184 65.3146L247.543 66.7814ZM254.107 57.6361C255.761 54.0631 256.779 50.077 257.172 45.6892L255.179 45.5108C254.804 49.699 253.838 53.4569 252.292 56.7959L254.107 57.6361ZM256.176 44.6H241.583V46.6H256.176V44.6ZM240.591 45.476C240.036 49.9193 238.505 53.4217 236.052 56.0543L237.515 57.4177C240.31 54.4183 241.979 50.4967 242.576 45.724L240.591 45.476ZM236.044 56.0633C233.712 58.6276 230.422 59.96 226.032 59.96V61.96C230.857 61.96 234.735 60.4764 237.523 57.4087L236.044 56.0633ZM226.032 59.96C222.763 59.96 220.056 59.3434 217.867 58.1603L216.916 59.9197C219.463 61.2966 222.516 61.96 226.032 61.96V59.96ZM217.885 58.1703C215.646 56.8994 213.842 55.2435 212.46 53.1997L210.803 54.3203C212.365 56.6285 214.401 58.4926 216.898 59.9097L217.885 58.1703ZM212.46 53.1997C211.055 51.1227 210.012 48.7956 209.335 46.2106L207.4 46.7174C208.131 49.5084 209.264 52.0453 210.803 54.3203L212.46 53.1997ZM209.342 46.2375C208.719 43.5612 208.408 40.8212 208.408 38.016H206.408C206.408 40.9708 206.736 43.8628 207.393 46.6905L209.342 46.2375ZM208.408 38.016C208.408 35.0795 208.72 32.2419 209.343 29.5016L207.392 29.0584C206.735 31.9501 206.408 34.9365 206.408 38.016H208.408ZM209.338 29.5225C210.016 26.8081 211.06 24.4219 212.46 22.3523L210.803 21.2317C209.259 23.5141 208.127 26.1199 207.397 29.0375L209.338 29.5225ZM212.467 22.3412C213.848 20.2401 215.644 18.5934 217.867 17.3917L216.916 15.6323C214.403 16.9906 212.359 18.8639 210.796 21.2428L212.467 22.3412ZM217.885 17.3817C220.07 16.1417 222.771 15.496 226.032 15.496V13.496C222.508 13.496 219.449 14.1943 216.898 15.6423L217.885 17.3817ZM226.032 15.496C227.77 15.496 229.408 15.7952 230.953 16.3893L231.67 14.5226C229.887 13.8368 228.005 13.496 226.032 13.496V15.496ZM230.995 16.4047C232.616 16.9448 234.044 17.7207 235.29 18.7292L236.549 17.1748C235.107 16.0073 233.463 15.1192 231.628 14.5073L230.995 16.4047ZM235.29 18.7292C236.545 19.7453 237.589 20.9383 238.425 22.3119L240.134 21.2721C239.178 19.7017 237.982 18.3347 236.549 17.1748L235.29 18.7292ZM238.436 22.3289C239.253 23.6129 239.782 25.0468 240.018 26.6425L241.997 26.3494C241.721 24.4892 241.098 22.7871 240.123 21.2551L238.436 22.3289ZM266.468 3.456V2.456H265.468V3.456H266.468ZM266.468 72H265.468V73H266.468V72ZM280.58 72V73H281.58V72H280.58ZM280.58 23.904V22.904H279.58V23.904H280.58ZM280.772 23.904L281.716 23.5742L281.482 22.904H280.772V23.904ZM297.572 72L296.628 72.3298L296.862 73H297.572V72ZM309.188 72V73H309.9L310.133 72.3269L309.188 72ZM325.988 23.424V22.424H325.275L325.043 23.0971L325.988 23.424ZM326.18 23.424H327.18V22.424H326.18V23.424ZM326.18 72H325.18V73H326.18V72ZM340.292 72V73H341.292V72H340.292ZM340.292 3.456H341.292V2.456H340.292V3.456ZM319.076 3.456V2.456H318.347L318.124 3.14967L319.076 3.456ZM303.908 50.592V51.592H304.636L304.86 50.8983L303.908 50.592ZM303.716 50.592L302.769 50.914L303 51.592H303.716V50.592ZM287.684 3.456L288.63 3.13399L288.4 2.456H287.684V3.456ZM265.468 3.456V72H267.468V3.456H265.468ZM266.468 73H280.58V71H266.468V73ZM281.58 72V23.904H279.58V72H281.58ZM280.58 24.904H280.772V22.904H280.58V24.904ZM279.828 24.2338L296.628 72.3298L298.516 71.6702L281.716 23.5742L279.828 24.2338ZM297.572 73H309.188V71H297.572V73ZM310.133 72.3269L326.933 23.7508L325.043 23.0971L308.243 71.6731L310.133 72.3269ZM325.988 24.424H326.18V22.424H325.988V24.424ZM325.18 23.424V72H327.18V23.424H325.18ZM326.18 73H340.292V71H326.18V73ZM341.292 72V3.456H339.292V72H341.292ZM340.292 2.456H319.076V4.456H340.292V2.456ZM318.124 3.14967L302.956 50.2857L304.86 50.8983L320.028 3.76232L318.124 3.14967ZM303.908 49.592H303.716V51.592H303.908V49.592ZM304.662 50.27L288.63 3.13399L286.737 3.778L302.769 50.914L304.662 50.27ZM287.684 2.456H266.468V4.456H287.684V2.456ZM363.834 49.248H364.834V48.248H363.834V49.248ZM349.242 49.248V48.248H348.257L348.242 49.2328L349.242 49.248ZM351.546 60.192L350.659 60.6539L350.659 60.6539L351.546 60.192ZM357.978 67.776L357.384 68.5806L357.393 68.5872L357.978 67.776ZM367.386 72.096L367.644 71.13L367.632 71.1269L367.386 72.096ZM390.714 71.904L390.423 70.9471L390.418 70.9486L390.714 71.904ZM399.642 67.392L400.271 68.1688L400.274 68.1669L399.642 67.392ZM405.114 60.384L404.202 59.9718L404.202 59.9718L405.114 60.384ZM404.442 42.24L403.6 42.7797L403.608 42.7923L403.616 42.8047L404.442 42.24ZM398.682 36.288L399.231 35.4523L399.231 35.4523L398.682 36.288ZM391.866 33.12L391.566 34.074L391.582 34.079L391.598 34.0835L391.866 33.12ZM386.586 31.68L386.34 32.6493L386.364 32.6556L386.389 32.6606L386.586 31.68ZM376.122 28.992L375.862 29.9579L375.868 29.9594L376.122 28.992ZM369.882 26.88L369.45 27.7821L369.457 27.7857L369.465 27.7891L369.882 26.88ZM366.906 24.576L366.054 25.1001L366.054 25.1001L366.906 24.576ZM367.098 17.664L366.265 17.1093L366.265 17.1093L367.098 17.664ZM369.498 15.264L368.968 14.416L368.955 14.4238L368.943 14.4319L369.498 15.264ZM381.594 14.016L381.39 14.995L381.397 14.9966L381.594 14.016ZM385.818 15.648L385.284 16.4935L385.284 16.4935L385.818 15.648ZM388.698 18.816L387.812 19.28L387.82 19.2962L387.829 19.3121L388.698 18.816ZM390.042 23.904L389.043 23.9664L389.102 24.904H390.042V23.904ZM404.634 23.904V24.904H405.634V23.904H404.634ZM402.33 13.824L401.443 14.2873L401.45 14.2994L401.456 14.3114L402.33 13.824ZM396.281 6.912L395.708 7.73123L395.708 7.73123L396.281 6.912ZM387.45 3.07199L387.202 4.04101L387.214 4.04382L387.225 4.04639L387.45 3.07199ZM367.962 3.07199L367.7 2.10677L367.7 2.10677L367.962 3.07199ZM359.706 6.912L359.126 6.09682L359.126 6.09682L359.706 6.912ZM353.754 13.44L352.89 12.9348L352.887 12.9415L353.754 13.44ZM353.273 30.624L352.384 31.0813L352.392 31.0967L352.401 31.1118L353.273 30.624ZM357.978 36.096L357.369 36.8896L357.369 36.8896L357.978 36.096ZM364.506 39.744L364.138 40.6742L364.149 40.6784L364.16 40.6823L364.506 39.744ZM371.994 42.048L372.265 41.0855L372.251 41.0815L372.236 41.0779L371.994 42.048ZM379.386 43.968L379.616 42.9949L379.616 42.9949L379.386 43.968ZM385.914 45.984L386.285 45.0555L386.285 45.0555L385.914 45.984ZM390.522 48.864L389.814 49.5711L389.824 49.5807L389.834 49.59L390.522 48.864ZM391.002 57.696L391.773 58.3317L391.782 58.3209L391.791 58.3099L391.002 57.696ZM387.642 60.288L387.212 59.3851L387.212 59.3851L387.642 60.288ZM383.322 61.632L383.446 62.6243L383.466 62.6217L383.486 62.6184L383.322 61.632ZM373.242 61.248L372.976 62.212L372.991 62.2163L373.007 62.2201L373.242 61.248ZM368.346 59.04L367.739 59.8354L367.76 59.8514L367.782 59.8662L368.346 59.04ZM365.082 55.104L365.969 54.6426L365.969 54.6426L365.082 55.104ZM363.834 48.248H349.242V50.248H363.834V48.248ZM348.242 49.2328C348.176 53.5867 348.967 57.4057 350.659 60.6539L352.432 59.7301C350.924 56.8343 350.179 53.3573 350.241 49.2631L348.242 49.2328ZM350.659 60.6539C352.326 63.8559 354.569 66.5028 357.384 68.5806L358.571 66.9714C356.01 65.0812 353.965 62.6721 352.432 59.7301L350.659 60.6539ZM357.393 68.5872C360.254 70.6496 363.506 72.1403 367.139 73.0651L367.632 71.1269C364.225 70.2597 361.205 68.8704 358.562 66.9648L357.393 68.5872ZM367.127 73.0619C370.797 74.045 374.564 74.536 378.426 74.536V72.536C374.735 72.536 371.142 72.067 367.644 71.1301L367.127 73.0619ZM378.426 74.536C383.172 74.536 387.372 73.9837 391.009 72.8594L390.418 70.9486C387.015 72.0003 383.023 72.536 378.426 72.536V74.536ZM391.004 72.8609C394.684 71.7437 397.783 70.1865 400.271 68.1688L399.012 66.6152C396.764 68.4375 393.911 69.8883 390.423 70.9471L391.004 72.8609ZM400.274 68.1669C402.818 66.0915 404.741 63.6339 406.025 60.7962L404.202 59.9718C403.054 62.5101 401.329 64.7245 399.009 66.6171L400.274 68.1669ZM406.025 60.7962C407.303 57.9706 407.938 54.917 407.938 51.648H405.938C405.938 54.651 405.356 57.4214 404.202 59.9718L406.025 60.7962ZM407.938 51.648C407.938 47.667 407.075 44.3174 405.267 41.6753L403.616 42.8047C405.136 45.0266 405.938 47.949 405.938 51.648H407.938ZM405.283 41.7003C403.616 39.0988 401.6 37.0092 399.231 35.4523L398.132 37.1237C400.243 38.5108 402.067 40.3892 403.6 42.7797L405.283 41.7003ZM399.231 35.4523C396.914 33.9302 394.548 32.8274 392.133 32.1565L391.598 34.0835C393.791 34.6926 395.969 35.7018 398.132 37.1237L399.231 35.4523ZM392.165 32.166C389.914 31.4583 388.114 30.9659 386.782 30.6994L386.389 32.6606C387.617 32.9061 389.337 33.3737 391.566 34.074L392.165 32.166ZM386.831 30.7107C382.545 29.623 379.059 28.7277 376.375 28.0246L375.868 29.9594C378.56 30.6643 382.05 31.561 386.34 32.6493L386.831 30.7107ZM376.381 28.0262C373.782 27.3291 371.762 26.642 370.298 25.9709L369.465 27.7891C371.073 28.526 373.213 29.2469 375.862 29.9578L376.381 28.0262ZM370.313 25.9779C368.91 25.3071 368.121 24.6437 367.757 24.0519L366.054 25.1001C366.714 26.1723 367.909 27.0449 369.45 27.7821L370.313 25.9779ZM367.757 24.0519C367.372 23.4261 367.138 22.5378 367.138 21.312H365.138C365.138 22.7742 365.415 24.0619 366.054 25.1001L367.757 24.0519ZM367.138 21.312C367.138 19.9832 367.426 18.9745 367.93 18.2187L366.265 17.1093C365.489 18.2735 365.138 19.6968 365.138 21.312H367.138ZM367.93 18.2187C368.496 17.3685 369.202 16.6628 370.052 16.096L368.943 14.4319C367.873 15.1452 366.979 16.0394 366.265 17.1093L367.93 18.2187ZM370.027 16.112C370.949 15.536 371.959 15.1311 373.064 14.8985L372.651 12.9414C371.324 13.2209 370.094 13.712 368.968 14.416L370.027 16.112ZM373.064 14.8985C374.213 14.6565 375.36 14.536 376.506 14.536V12.536C375.219 12.536 373.934 12.6715 372.651 12.9414L373.064 14.8985ZM376.506 14.536C378.305 14.536 379.931 14.6912 381.39 14.995L381.797 13.037C380.184 12.7008 378.418 12.536 376.506 12.536V14.536ZM381.397 14.9966C382.893 15.2958 384.184 15.799 385.284 16.4935L386.351 14.8025C385.019 13.961 383.494 13.3762 381.79 13.0354L381.397 14.9966ZM385.284 16.4935C386.342 17.1623 387.185 18.083 387.812 19.28L389.583 18.352C388.802 16.861 387.725 15.6697 386.351 14.8025L385.284 16.4935ZM387.829 19.3121C388.501 20.4874 388.922 22.0234 389.043 23.9664L391.04 23.8416C390.905 21.6886 390.43 19.8326 389.566 18.3199L387.829 19.3121ZM390.042 24.904H404.634V22.904H390.042V24.904ZM405.634 23.904C405.634 19.8088 404.841 16.2714 403.203 13.3366L401.456 14.3114C402.89 16.8806 403.634 20.0632 403.634 23.904H405.634ZM403.216 13.3607C401.671 10.4052 399.549 7.97825 396.855 6.09276L395.708 7.73123C398.134 9.42974 400.044 11.6108 401.443 14.2873L403.216 13.3607ZM396.855 6.09277C394.18 4.22057 391.116 2.89177 387.674 2.0976L387.225 4.04639C390.439 4.78822 393.263 6.01942 395.708 7.73123L396.855 6.09277ZM387.697 2.10298C384.347 1.24914 380.839 0.823999 377.178 0.823999V2.824C380.684 2.824 384.024 3.23086 387.202 4.04101L387.697 2.10298ZM377.178 0.823999C374.014 0.823999 370.854 1.25253 367.7 2.10677L368.223 4.03722C371.213 3.22747 374.197 2.824 377.178 2.824V0.823999ZM367.7 2.10677C364.522 2.96756 361.661 4.29598 359.126 6.09682L360.285 7.72718C362.614 6.07201 365.257 4.84043 368.223 4.03722L367.7 2.10677ZM359.126 6.09682C356.577 7.90848 354.497 10.191 352.89 12.9348L354.617 13.9452C356.082 11.441 357.97 9.37151 360.285 7.72718L359.126 6.09682ZM352.887 12.9415C351.312 15.6799 350.546 18.8987 350.546 22.56H352.546C352.546 19.1813 353.251 16.3201 354.62 13.9385L352.887 12.9415ZM350.546 22.56C350.546 25.8169 351.144 28.6694 352.384 31.0813L354.163 30.1666C353.099 28.0986 352.546 25.5751 352.546 22.56H350.546ZM352.401 31.1118C353.681 33.403 355.338 35.3322 357.369 36.8896L358.586 35.3024C356.777 33.9158 355.298 32.197 354.146 30.1362L352.401 31.1118ZM357.369 36.8896C359.368 38.4225 361.627 39.6828 364.138 40.6742L364.873 38.8138C362.52 37.8852 360.427 36.7135 358.586 35.3024L357.369 36.8896ZM364.16 40.6823C366.626 41.591 369.157 42.3696 371.751 43.0181L372.236 41.0779C369.71 40.4464 367.249 39.689 364.851 38.8057L364.16 40.6823ZM371.722 43.0104C374.231 43.7181 376.709 44.3617 379.155 44.9411L379.616 42.9949C377.198 42.4223 374.748 41.7859 372.265 41.0855L371.722 43.0104ZM379.155 44.9411C381.549 45.508 383.676 46.1661 385.542 46.9125L386.285 45.0555C384.311 44.2659 382.086 43.58 379.616 42.9949L379.155 44.9411ZM385.542 46.9125C387.369 47.6432 388.78 48.5369 389.814 49.5711L391.229 48.1569C389.959 46.8871 388.298 45.8608 386.285 45.0555L385.542 46.9125ZM389.834 49.59C390.828 50.5317 391.346 51.7618 391.346 53.376H393.346C393.346 51.2782 392.647 49.5003 391.209 48.138L389.834 49.59ZM391.346 53.376C391.346 54.9241 390.948 56.1364 390.212 57.0821L391.791 58.3099C392.847 56.9516 393.346 55.2839 393.346 53.376H391.346ZM390.23 57.0603C389.432 58.029 388.431 58.8045 387.212 59.3851L388.071 61.1909C389.54 60.4915 390.779 59.539 391.773 58.3317L390.23 57.0603ZM387.212 59.3851C385.956 59.9832 384.605 60.4042 383.157 60.6456L383.486 62.6184C385.11 62.3478 386.639 61.8728 388.071 61.1909L387.212 59.3851ZM383.197 60.6397C381.697 60.8273 380.298 60.92 379.002 60.92V62.92C380.393 62.92 381.874 62.8207 383.446 62.6243L383.197 60.6397ZM379.002 60.92C377.093 60.92 375.252 60.7047 373.476 60.2759L373.007 62.2201C374.943 62.6873 376.942 62.92 379.002 62.92V60.92ZM373.507 60.284C371.744 59.7975 370.215 59.1043 368.909 58.2138L367.782 59.8662C369.292 60.8957 371.027 61.6745 372.976 62.212L373.507 60.284ZM368.952 58.2446C367.733 57.3158 366.737 56.1209 365.969 54.6426L364.194 55.5654C365.09 57.2871 366.27 58.7162 367.739 59.8354L368.952 58.2446ZM365.969 54.6426C365.229 53.2192 364.834 51.4348 364.834 49.248H362.834C362.834 51.6692 363.27 53.7888 364.194 55.5654L365.969 54.6426Z" fill="black"/>
</svg>
