<svg width="24" height="24" viewBox="0 0 24 24" fill="none" xmlns="http://www.w3.org/2000/svg">
<path fill-rule="evenodd" clip-rule="evenodd" d="M24 12C24 18.627 18.627 24 12 24C5.373 24 0 18.627 0 12C0 5.373 5.373 0 12 0C18.627 0 24 5.373 24 12ZM19.688 11.058C19.882 11.335 19.992 11.662 20.004 12C20.0092 12.3307 19.9207 12.6561 19.7487 12.9385C19.5767 13.221 19.3282 13.4489 19.032 13.596C19.046 13.772 19.046 13.948 19.032 14.124C19.032 16.812 15.9 18.996 12.036 18.996C8.172 18.996 5.04 16.812 5.04 14.124C5.02649 13.9483 5.02649 13.7717 5.04 13.596C4.81117 13.4889 4.60825 13.3335 4.44519 13.1405C4.28213 12.9475 4.16279 12.7215 4.09537 12.478C4.02796 12.2345 4.01408 11.9793 4.05467 11.7299C4.09526 11.4805 4.18937 11.2429 4.33053 11.0333C4.47169 10.8238 4.65656 10.6473 4.87241 10.516C5.08826 10.3847 5.32999 10.3016 5.58098 10.2726C5.83197 10.2436 6.08626 10.2693 6.32638 10.3479C6.5665 10.4265 6.78676 10.5562 6.972 10.728C8.35473 9.79023 9.98146 9.27718 11.652 9.252L12.54 5.088C12.55 5.03979 12.5694 4.99405 12.5972 4.95341C12.625 4.91277 12.6605 4.87805 12.7018 4.85127C12.7431 4.82448 12.7894 4.80615 12.8378 4.79735C12.8862 4.78855 12.9359 4.78945 12.984 4.8L15.924 5.388C16.0676 5.14133 16.2944 4.9539 16.5637 4.85937C16.833 4.76484 17.1272 4.7694 17.3934 4.87222C17.6597 4.97505 17.8806 5.1694 18.0164 5.42041C18.1523 5.67141 18.1943 5.96262 18.1348 6.24177C18.0753 6.52092 17.9182 6.76972 17.6918 6.94352C17.4654 7.11732 17.1845 7.20473 16.8995 7.19006C16.6144 7.1754 16.3439 7.05962 16.1366 6.8635C15.9292 6.66739 15.7985 6.40378 15.768 6.12L13.2 5.58L12.42 9.324C14.0702 9.3594 15.6749 9.87206 17.04 10.8C17.2222 10.6248 17.4402 10.4911 17.679 10.4082C17.9178 10.3252 18.1718 10.295 18.4234 10.3195C18.675 10.344 18.9183 10.4227 19.1366 10.5502C19.3549 10.6777 19.543 10.8509 19.688 11.058V11.058ZM8.206 12.533C8.11841 12.6641 8.05749 12.8111 8.02672 12.9657C7.99595 13.1203 7.99593 13.2794 8.02667 13.4341C8.08874 13.7463 8.27231 14.0211 8.537 14.198C8.80169 14.3749 9.1258 14.4394 9.43805 14.3773C9.59266 14.3466 9.7397 14.2857 9.87078 14.1981C10.0019 14.1106 10.1144 13.9981 10.202 13.867C10.3789 13.6023 10.4434 13.2782 10.3813 12.9659C10.3193 12.6537 10.1357 12.3789 9.871 12.202C9.60631 12.0251 9.2822 11.9606 8.96995 12.0227C8.6577 12.0847 8.3829 12.2683 8.206 12.533ZM12.012 17.424C13.077 17.468 14.125 17.19 14.976 16.548C15.0397 16.4859 15.076 16.4011 15.0772 16.3122C15.0783 16.2234 15.0441 16.1377 14.982 16.074C14.9513 16.0425 14.9146 16.0173 14.8742 16C14.8337 15.9826 14.7903 15.9734 14.7462 15.9728C14.6574 15.9717 14.5717 16.0059 14.508 16.068C13.7797 16.5904 12.895 16.8487 12 16.8C11.1061 16.8399 10.2255 16.5732 9.504 16.044C9.44183 15.993 9.36289 15.9669 9.28256 15.9708C9.20222 15.9748 9.12622 16.0085 9.06935 16.0653C9.01247 16.1222 8.97879 16.1982 8.97484 16.2786C8.97089 16.3589 8.99697 16.4378 9.048 16.5C9.89937 17.1416 10.9469 17.4681 12.012 17.424V17.424ZM14.093 14.246C14.291 14.378 14.511 14.496 14.748 14.496C14.9108 14.4979 15.0722 14.4666 15.2225 14.4041C15.3728 14.3416 15.5087 14.2492 15.6221 14.1324C15.7355 14.0156 15.824 13.877 15.8821 13.725C15.9401 13.5729 15.9667 13.4106 15.96 13.248C15.9599 13.0407 15.9062 12.837 15.8039 12.6567C15.7017 12.4763 15.5545 12.3256 15.3767 12.219C15.1989 12.1125 14.9965 12.0539 14.7893 12.0488C14.5821 12.0437 14.3771 12.0924 14.1943 12.1902C14.0115 12.2879 13.8571 12.4313 13.7462 12.6064C13.6353 12.7815 13.5717 12.9824 13.5615 13.1894C13.5513 13.3964 13.5949 13.6026 13.688 13.7877C13.7812 13.9729 13.9207 14.1308 14.093 14.246V14.246Z" fill="black"/>
</svg>
