<?xml version="1.0" encoding="utf-8"?>
<!-- Generator: Adobe Illustrator 23.0.3, SVG Export Plug-In . SVG Version: 6.00 Build 0)  -->
<svg version="1.1" id="Layer_1" xmlns="http://www.w3.org/2000/svg" xmlns:xlink="http://www.w3.org/1999/xlink" x="0px" y="0px"
	 viewBox="0 0 269 59" style="enable-background:new 0 0 269 59;" xml:space="preserve">
<style type="text/css">
	.st0{enable-background:new    ;}
	.st1{fill:#0A1A3D;}
	.st2{fill:#0A142A;}
	.st3{fill:#3CE854;}
</style>
<g class="st0">
	<path class="st1" d="M202,15.4c0,7.8-4.8,13.4-14.4,13.4h-13v16.8h-5.1V2h18.1C197.2,2,202,7.5,202,15.4z M196.7,15.4
		c0-5.5-3-8.7-9.1-8.7h-13v17.5h13C193.7,24.1,196.7,20.9,196.7,15.4z"/>
	<path class="st1" d="M205.1,2h4.9v43.5h-4.9V2z"/>
	<path class="st1" d="M243.2,41.5v4c-0.8,0.1-1.8,0.2-2.7,0.2c-3.5,0-5.1-1.5-5.3-4.5c-2.2,3.4-5.7,5.1-10.3,5.1
		c-6.8,0-11.1-3.3-11.1-9.2c0-5,3-8.9,11.7-9.8l4.5-0.5c3.2-0.4,5-1.5,5-4.3c0-3.3-1.7-5-7.1-5c-5.4,0-7.6,1.5-8,6.2H215
		c0.4-6.1,3.6-10.5,12.8-10.5c8.7,0,11.9,3.9,11.9,9.2V40c0,1,0.5,1.5,1.7,1.5H243.2z M235,33v-3.7c-1,0.7-2.3,1.2-4.2,1.3l-4.6,0.6
		c-5.7,0.7-7.3,2.6-7.3,5.7c0,3.1,2,5.2,6.3,5.2C229.9,42.1,235,39.3,235,33z"/>
	<path class="st1" d="M269.6,14l-13.3,36.5c-2,5.6-5.3,7.2-10.3,7.2c-1,0-1.9-0.1-2.9-0.2v-4.1h2.9c3.1,0,4.8-1.4,5.7-3.9
		c0.4-0.9,0.7-2,1.1-2.9L240.9,14h5.4l4.5,13.1c1.6,4.6,3.1,9.1,4.5,13.6c1.4-4.5,2.9-9.1,4.5-13.7l4.5-13.1H269.6z"/>
</g>
<g id="Group">
	<g id="core-logo">
		<path id="Combined-Shape" class="st2" d="M0,10.3h10.3V1.1h16.1v9.2H10.3v8h14.9v9.2H10.3v8h16.1v9.2H0V10.3z M65.3,1.2v9.2H52.9
			v34.5h-9.2V10.3H32.2V1.2H65.3z M142.6,35.6h-9.2v-8h-13.8v17.2h-9.2V1.2h9.2v17.2h13.8V1.1h9.2V35.6z M94.3,30h9.2v5.7
			c0,5.3-4.5,10.3-12.6,10.3h-6.9c-8.4,0-12.6-5-12.6-10.3V9.2c0-5.3,4.2-9.2,12.6-9.2h6.9c8.1,0,12.6,3.9,12.6,9.2v6.6h-9.2v-3.5
			c0-2.6-1-3.1-3.4-3.1h-6.9c-2.4,0-3.4,0.9-3.4,3.4v20.7c0,2.6,1,3.4,3.4,3.4h6.9c2.5,0,3.4-0.6,3.4-3.1V30z"/>
	</g>
	<g id="Green" transform="translate(146.843144, 35.624554)">
		<polygon id="Path" class="st3" points="10.1,0 10.1,10.1 0,10.1 0,0 		"/>
	</g>
</g>
</svg>
