<svg width="986" height="210" viewBox="0 0 986 210" fill="none" xmlns="http://www.w3.org/2000/svg">
<path d="M0 38.0427H37.7662V4.44702H96.5135V38.0427H37.7662V67.4389H92.3173V101.067H37.7662V130.431H96.5135V164.026H0V38.0427H0ZM238.288 4.47932V38.0427H193.027V164.026H159.457V38.0427H117.354V4.47932H238.288ZM520.334 130.431H486.764V101.035H436.409V164.026H402.839V4.47932H436.409V67.4389H486.764V4.44702H520.334V130.431ZM344.092 109.717H377.662V130.431C377.662 149.777 361.158 168.226 331.503 168.226H306.326C275.484 168.226 260.167 149.777 260.167 130.431V33.8432C260.167 14.4974 275.484 0.247559 306.326 0.247559H331.503C361.158 0.247559 377.662 14.4974 377.662 33.8432V58.0491H344.092V45.3092C344.092 35.8722 340.518 33.8432 331.503 33.8432H306.326C297.548 33.8432 293.737 37.0046 293.737 46.4416V122.032C293.737 131.469 297.548 134.63 306.326 134.63H331.503C340.518 134.63 344.092 132.601 344.092 123.164V109.717Z" fill="white"/>
<path d="M575.322 130.445V164.04H541.712V130.445H575.322Z" fill="#60E497"/>
<path d="M665.775 0.247559H596.063V164.058H620.681V103.55H665.775C702.817 103.55 721.912 82.383 721.912 52.0136C721.912 21.4141 702.817 0.247559 665.775 0.247559ZM665.315 81.9228H620.681V21.8743H665.315C686.021 21.8743 696.835 32.9177 696.835 52.0136C696.835 71.1095 686.021 81.9228 665.315 81.9228Z" fill="white"/>
<path d="M732.249 164.058H755.257V0.247559H732.249V164.058Z" fill="white"/>
<path d="M876.254 146.343C871.653 146.343 869.812 144.042 869.812 140.361V77.5515C869.812 56.8451 856.928 42.5807 822.878 42.5807C787.217 42.5807 773.873 58.4556 772.492 82.383H795.269C796.42 66.278 804.242 60.9864 822.878 60.9864C841.514 60.9864 847.265 66.9682 847.265 78.0116C847.265 87.6746 841.053 91.5858 829.55 92.9663L812.064 94.8068C778.934 98.0278 767.431 112.522 767.431 131.618C767.431 154.395 784.226 166.819 809.764 166.819C827.019 166.819 840.363 160.377 848.416 147.953C850.026 159.457 856.698 164.749 871.423 164.749C875.104 164.749 879.245 164.518 882.696 164.058V146.343H876.254ZM813.215 148.874C798.26 148.874 791.128 141.741 791.128 130.928C791.128 120.345 796.88 113.673 815.976 111.372L832.541 109.531C838.983 108.841 843.814 107.461 847.265 104.7V117.124C847.265 139.441 830.01 148.874 813.215 148.874Z" fill="white"/>
<path d="M961.541 45.3415L947.736 86.0641C941.524 104.93 935.543 124.026 929.791 142.892C924.269 124.026 918.287 104.93 912.075 86.0641L898.271 45.3415H873.193L917.137 167.279C915.987 170.27 914.836 173.491 913.916 176.252C910.465 185.455 904.713 190.516 893.209 190.516H881.706V209.152C885.617 209.612 889.068 209.842 893.67 209.842C916.907 209.842 929.331 202.71 937.613 179.013L985.928 45.3415H961.541Z" fill="white"/>
</svg>
