<svg width="24" height="24" viewBox="0 0 24 24" fill="none" xmlns="http://www.w3.org/2000/svg">
<g clip-path="url(#clip0)">
<path d="M20.317 4.37C18.761 3.65584 17.119 3.14659 15.432 2.855C15.4166 2.85201 15.4007 2.85397 15.3865 2.86062C15.3723 2.86727 15.3605 2.87826 15.353 2.892C15.143 3.267 14.909 3.756 14.745 4.142C12.9264 3.86579 11.0766 3.86579 9.25799 4.142C9.07548 3.7143 8.8695 3.297 8.64099 2.892C8.63311 2.87857 8.62134 2.86784 8.60724 2.86124C8.59313 2.85463 8.57736 2.85246 8.56199 2.855C6.87484 3.14598 5.23272 3.65526 3.67699 4.37C3.66382 4.37553 3.65265 4.38495 3.64499 4.397C0.532992 9.046 -0.320008 13.58 0.0989923 18.057C0.10001 18.0681 0.103284 18.0789 0.108615 18.0887C0.113945 18.0985 0.121219 18.1071 0.129992 18.114C1.94159 19.4562 3.9681 20.4808 6.12299 21.144C6.13818 21.1484 6.15435 21.1481 6.16935 21.1431C6.18435 21.1381 6.19748 21.1286 6.20699 21.116C6.66899 20.486 7.08099 19.821 7.43299 19.122C7.43791 19.1125 7.44075 19.102 7.44132 19.0913C7.44189 19.0805 7.44018 19.0698 7.43631 19.0598C7.43243 19.0498 7.42648 19.0407 7.41884 19.0331C7.4112 19.0256 7.40205 19.0198 7.39199 19.016C6.74541 18.7686 6.11946 18.4703 5.51999 18.124C5.509 18.1176 5.49976 18.1087 5.49307 18.0979C5.48639 18.0871 5.48248 18.0748 5.48169 18.0621C5.48089 18.0495 5.48325 18.0368 5.48853 18.0253C5.49382 18.0137 5.50188 18.0037 5.51199 17.996C5.63823 17.9016 5.76227 17.8042 5.88399 17.704C5.89464 17.6954 5.90748 17.6899 5.92108 17.6881C5.93467 17.6863 5.94849 17.6884 5.96099 17.694C9.88899 19.487 14.141 19.487 18.023 17.694C18.0356 17.6882 18.0496 17.686 18.0634 17.6878C18.0772 17.6896 18.0902 17.6952 18.101 17.704C18.221 17.802 18.347 17.902 18.474 17.996C18.484 18.0036 18.492 18.0134 18.4973 18.0248C18.5026 18.0361 18.5051 18.0486 18.5045 18.0611C18.5039 18.0736 18.5003 18.0858 18.4939 18.0966C18.4876 18.1074 18.4787 18.1164 18.468 18.123C17.8699 18.4726 17.2433 18.7709 16.595 19.015C16.5849 19.0189 16.5757 19.0248 16.5681 19.0325C16.5604 19.0401 16.5545 19.0493 16.5506 19.0594C16.5468 19.0695 16.5451 19.0802 16.5456 19.091C16.5462 19.1018 16.5491 19.1124 16.554 19.122C16.914 19.82 17.326 20.484 17.779 21.115C17.7883 21.1279 17.8014 21.1375 17.8165 21.1425C17.8316 21.1475 17.8478 21.1477 17.863 21.143C20.0215 20.4818 22.0513 19.4571 23.865 18.113C23.8738 18.1068 23.8812 18.0987 23.8867 18.0894C23.8923 18.0801 23.8957 18.0697 23.897 18.059C24.397 12.882 23.059 8.385 20.348 4.399C20.3417 4.38556 20.3306 4.37489 20.317 4.369V4.37ZM8.01999 15.33C6.83699 15.33 5.86299 14.245 5.86299 12.911C5.86299 11.578 6.81899 10.492 8.01999 10.492C9.22999 10.492 10.196 11.588 10.177 12.912C10.177 14.245 9.22099 15.33 8.01999 15.33V15.33ZM15.995 15.33C14.812 15.33 13.838 14.245 13.838 12.911C13.838 11.578 14.793 10.492 15.995 10.492C17.205 10.492 18.171 11.588 18.152 12.912C18.152 14.245 17.206 15.33 15.995 15.33V15.33Z" fill="black"/>
</g>
<defs>
<clipPath id="clip0">
<rect width="24" height="24" fill="white"/>
</clipPath>
</defs>
</svg>
