<?xml version="1.0" encoding="utf-8"?>
<!-- Generator: Adobe Illustrator 23.0.3, SVG Export Plug-In . SVG Version: 6.00 Build 0)  -->
<svg version="1.1" id="Layer_1" xmlns="http://www.w3.org/2000/svg" xmlns:xlink="http://www.w3.org/1999/xlink" x="0px" y="0px"
	 viewBox="0 0 162 129" style="enable-background:new 0 0 162 129;" xml:space="preserve">
<style type="text/css">
	.st0{enable-background:new    ;}
	.st1{fill:#0A1A3D;}
	.st2{fill:#0A142A;}
	.st3{fill:#3CE854;}
</style>
<g class="st0">
	<path class="st1" d="M33.7,85c0,8-4.9,13.7-14.7,13.7H5.7v17.1H0.5V71.3H19C28.8,71.3,33.7,77,33.7,85z M28.3,85
		c0-5.6-3.1-8.9-9.3-8.9H5.7v17.9H19C25.2,93.9,28.3,90.6,28.3,85z"/>
	<path class="st1" d="M36.9,71.3h5v44.5h-5V71.3z"/>
	<path class="st1" d="M75.8,111.7v4.1c-0.8,0.1-1.8,0.2-2.7,0.2c-3.6,0-5.2-1.6-5.4-4.6c-2.2,3.4-5.9,5.2-10.5,5.2
		c-7,0-11.4-3.4-11.4-9.4c0-5.1,3.1-9.1,11.9-10l4.6-0.5c3.2-0.4,5.1-1.6,5.1-4.4c0-3.4-1.7-5.1-7.2-5.1s-7.8,1.6-8.1,6.4h-5
		c0.4-6.2,3.7-10.7,13.1-10.7c8.9,0,12.1,3.9,12.1,9.4v18c0,1,0.6,1.6,1.7,1.6H75.8z M67.4,103.1v-3.8c-1,0.8-2.4,1.2-4.2,1.4
		l-4.7,0.6c-5.9,0.7-7.5,2.7-7.5,5.8c0,3.2,2,5.3,6.4,5.3C62.2,112.3,67.4,109.4,67.4,103.1z"/>
	<path class="st1" d="M102.7,83.6l-13.6,37.3c-2.1,5.7-5.4,7.4-10.5,7.4c-1,0-1.9-0.1-3-0.2v-4.2h2.9c3.2,0,4.9-1.4,5.9-4
		c0.4-0.9,0.8-2,1.1-3L73.4,83.6h5.5L83.5,97c1.6,4.7,3.1,9.3,4.6,13.9c1.4-4.6,3-9.3,4.6-14l4.6-13.4H102.7z"/>
</g>
<g id="Group">
	<g id="core-logo">
		<path id="Combined-Shape" class="st2" d="M1,11.4h10.5V2h16.4v9.4H11.5v8.2h15.2V29H11.5v8.2h16.4v9.4H1V11.4z M67.5,2v9.4H54.9
			v35.1h-9.4V11.4H33.8V2H67.5z M146.3,37.2h-9.4V29h-14.1v17.6h-9.4V2h9.4v17.6h14.1V2h9.4V37.2z M97.1,31.4h9.4v5.8
			c0,5.4-4.6,10.5-12.9,10.5h-7c-8.6,0-12.9-5.1-12.9-10.5V10.2c0-5.4,4.3-9.4,12.9-9.4h7c8.3,0,12.9,4,12.9,9.4V17h-9.4v-3.6
			c0-2.6-1-3.2-3.5-3.2h-7c-2.5,0-3.5,0.9-3.5,3.5v21.1c0,2.6,1.1,3.5,3.5,3.5h7c2.5,0,3.5-0.6,3.5-3.2V31.4z"/>
	</g>
	<g id="Green" transform="translate(149.936396, 36.312721)">
		<polygon id="Path" class="st3" points="11.5,0.9 11.5,11.4 1,11.4 1,0.9 		"/>
	</g>
</g>
</svg>
