<?xml version="1.0" encoding="utf-8"?>
<!-- Generator: Adobe Illustrator 22.1.0, SVG Export Plug-In . SVG Version: 6.00 Build 0)  -->
<svg version="1.1" id="Layer_1" xmlns="http://www.w3.org/2000/svg" xmlns:xlink="http://www.w3.org/1999/xlink" x="0px" y="0px"
	 viewBox="0 0 690.5 1000" style="enable-background:new 0 0 690.5 1000;" xml:space="preserve">
<style type="text/css">
	.st0{fill:#107C10;}
	.st1{fill:#9BF00B;}
	.st2{fill:#FFFFFF;}
	.st3{fill:none;}
	.st4{enable-background:new    ;}
</style>
<g id="Background">
	<polygon class="st0" points="4.4,801.5 4.4,199.699997 344,3.6 683.599976,199.699997 683.599976,801.5 344,997.5 	"/>
	<path class="st1" d="M344,55L48.900002,225.300003v550.5L344,946.200012l295.099976-170.399963V225.300003L344,55z
		 M629.900024,770.5L344,935.599976L58.099998,770.5V230.699997L344,65.599998l285.900024,165.100006V770.5z"/>
	<path d="M344,9.8L9.8,202.800003v595.599976l334.200012,193l334.200012-193V202.800003L344,9.8z M344,43l305.5,176.399994v92.5
		h-611v-92.5L344,43z M344,958.099976L38.5,781.799988V500.5h611v281.299988L344,958.099976z"/>
</g>
<g id="Vector_Art">
	<path class="st2" d="M344,180c0.100006,0,0.200012,0.100006,0.299988,0.100006
		c24.299988,18.5,65.899994,64.199997,53.200012,77.100006c-14.299988,12.5-33,20.100006-53.5,20.100006
		s-39.200012-7.600006-53.5-20.100006c-12.700012-12.899994,28.899994-58.699997,53.200012-77.100006
		C343.799988,180.100006,343.899994,180,344,180z M386.299988,126.699997
		C373.899994,119.299995,360.399994,114.799995,344,114.799995s-29.899994,4.5-42.299988,11.900002
		C301.600006,126.799995,301.5,127,301.600006,127.099998s0.200012,0.199997,0.399994,0.099998
		c15.700012-3.400002,39.600006,10.199997,41.899994,11.600006c0.100006,0,0.100006,0.100006,0.200012,0.100006
		s0.100006,0,0.200012-0.100006c2.299988-1.399994,26.200012-15,41.899994-11.599998c0.200012,0,0.299988,0,0.399994-0.099998
		C386.5,126.900002,386.5,126.800003,386.299988,126.699997z M287.100006,138.100006
		c-0.100006,0.100006-0.299988,0.199997-0.399994,0.300003c-14.799988,14.699997-24,35.099991-24,57.699997
		c0,18.5,6.200012,35.600006,16.600006,49.199997c0.100006,0.100006,0.299988,0.199997,0.399994,0.100006
		c0.100006-0.100006,0.100006-0.300003,0.100006-0.399994c-6.200012-19.199997,25.5-65.599991,41.799988-85.099991
		c0.100006-0.100006,0.100006-0.100006,0.100006-0.199997c0-0.100006-0.100006-0.199997-0.100006-0.300003
		C296.899994,134.800003,288.5,137.399994,287.100006,138.100006z M366.299988,159.5
		c-0.100006,0.100006-0.100006,0.199997-0.100006,0.300003S366.299988,160,366.299988,160
		c16.399994,19.5,48,65.899994,41.799988,85.100006c-0.100006,0.199997,0,0.300003,0.100006,0.399994
		c0.100006,0.100006,0.299988,0,0.399994-0.100006c10.399994-13.699997,16.600006-30.699997,16.600006-49.199997
		c0-22.600006-9.200012-43-24-57.699997c-0.100006-0.100006-0.200012-0.199997-0.399994-0.300003
		C399.5,137.399994,391.100006,134.800003,366.299988,159.5z"/>
	<path class="st2" d="M228,550.400024c3.800003,0,6.699997,1.400024,8.800003,4.200012
		c2.100006,2.700012,3.100006,6.599976,3.100006,11.599976c0,5.200012-1.199997,9.400024-3.5,12.200012
		c-2.399994,2.900024-5.800003,4.400024-10.100006,4.400024h-0.100006v-7.299988h0.100006
		c2.699997,0,4.699997-0.900024,5.899994-2.400024c1.199997-1.599976,1.800003-4,1.800003-7.099976c0-2.5-0.5-4.5-1.399994-5.799988
		s-2.300003-2-4.100006-2c-1.5,0-2.600006,0.599976-3.399994,1.700012c-0.800003,1.099976-1.5,3.200012-2.100006,6.200012
		l-0.699997,3.299988c-0.800003,4.099976-2.199997,7.299988-4.100006,9.400024c-2,2.099976-4.5,3.099976-7.699997,3.099976
		c-3.300003,0-6-1.299988-8-3.799988s-3-6.099976-3-10.599976c0-5.099976,1.100006-9,3.300003-11.599976
		s5.300003-4,9.199997-4.200012h0.100006v7.200012H212c-2.199997,0.099976-3.800003,0.900024-4.800003,2.200012
		s-1.600006,3.400024-1.600006,6.299988c0,2.200012,0.399994,3.900024,1.199997,5.099976c0.800003,1.200012,2,1.799988,3.5,1.799988
		s2.699997-0.5,3.5-1.599976s1.5-3.099976,2.100006-5.900024l0.699997-3.400024c0.899994-4.5,2.300003-7.799988,4.100006-9.799988
		C222.300003,551.5,224.800003,550.400024,228,550.400024z M220.5,761.900024c-1.800003,2-3.199997,5.299988-4.100006,9.799988
		l-0.699997,3.400024c-0.600006,2.799988-1.300003,4.799988-2.100006,5.900024c-0.800003,1.099976-2,1.599976-3.5,1.599976
		s-2.699997-0.599976-3.5-1.799988s-1.199997-2.900024-1.199997-5.099976c0-2.900024,0.5-5,1.600006-6.299988
		c1-1.299988,2.699997-2,4.800003-2.200012h0.100006V760h-0.100006c-3.899994,0.099976-7,1.599976-9.199997,4.200012
		c-2.199997,2.599976-3.300003,6.5-3.300003,11.599976c0,4.5,1,8,3,10.599976c2,2.5,4.699997,3.799988,8,3.799988
		c3.100006,0,5.699997-1.099976,7.699997-3.099976c2-2.099976,3.300003-5.200012,4.100006-9.400024l0.699997-3.299988
		c0.600006-3,1.300003-5.099976,2.100006-6.200012c0.800003-1.099976,1.899994-1.700012,3.399994-1.700012
		c1.800003,0,3.199997,0.700012,4.100006,2c0.899994,1.299988,1.399994,3.299988,1.399994,5.799988
		c0,3.099976-0.600006,5.5-1.800003,7.099976s-3.199997,2.400024-5.899994,2.400024H226v7.299988h0.100006
		c4.399994,0,7.800003-1.5,10.100006-4.400024c2.399994-2.900024,3.5-7,3.5-12.200012
		c0-4.900024-1.100006-8.799988-3.100006-11.599976C234.5,760.099915,231.5,758.69989,227.800003,758.69989
		C224.800003,758.900024,222.300003,759.900024,220.5,761.900024z M239,667.400024v7.700012l0,0
		c-1.100006,0.700012-2.699997,1-4.600006,1l-4.199997,0.200012c-2.300003,0.099976-4,0.599976-4.899994,1.599976
		c-0.899994,0.900024-1.399994,2.5-1.399994,4.599976v9.5H239v7.400024h-38.800003v-17.599976c0-0.900024,0-1.700012,0.100006-2.5
		c0,0.299988,0,0.5,0,0.799988c0.199997-3,0.899994-5.5,2.199997-7.400024c-0.100006,0.099976-0.199997,0.299988-0.300003,0.400024
		c0.300003-0.5,0.600006-0.900024,0.899994-1.299988c2-2.400024,4.699997-3.599976,8-3.599976
		c4.600006,0,7.699997,2.099976,9.199997,6.299988c0.600006-1.900024,1.600006-3.299988,2.899994-4.099976
		c1.300003-0.900024,3.100006-1.299988,5.399994-1.400024l5.800003-0.299988
		C236.300003,668.599976,237.800003,668.200012,239,667.400024L239,667.400024z M212,675.799988
		c-1.800003,0-3.199997,0.599976-4.199997,1.700012c-1,1.200012-1.5,2.799988-1.5,5v9.5H218v-9.700012
		c0-2-0.5-3.599976-1.5-4.799988S214,675.799988,212,675.799988z M200.199997,651.799988H239v-7.400024h-38.800003V651.799988z
		 M206.899994,597.700012h-6.699997v28.599976H239v-28.599976h-6.699997v21.200012h-9.899994v-19.200012H216v19.200012h-9.100006
		V597.700012L206.899994,597.700012z M206.899994,715.299988h-6.699997V744H239v-28.599976h-6.699997v21.200012h-9.899994
		v-19.200012H216v19.200012h-9.100006V715.299988L206.899994,715.299988z M255.899994,791.200012h51.5L346.5,737.400024
		L320.799988,702L255.899994,791.200012z M481.5,551.599976H430l-32,44L423.700012,631L481.5,551.599976z M314.5,551.599976H263
		l174.100006,239.599976h51.5L314.5,551.599976z"/>
</g>
<g id="Live_Text">
	<g>
		<rect x="35.900002" y="385.299988" class="st3" width="616.200012" height="65.899994"/>
		<g class="st4">
			<path class="st2" d="M180.100006,406.100006c0,3.899994-0.800003,7.299988-2.399994,10.299988
				c-1.600006,3-3.800003,5.399994-6.600006,7c-2.899994,1.600006-6.100006,2.5-9.699997,2.5c-3.5,0-6.699997-0.799988-9.5-2.399994
				s-5-3.899994-6.5-6.799988s-2.300003-6.200012-2.300003-9.899994c0-3.899994,0.800003-7.399994,2.300003-10.399994
				c1.600006-3,3.800003-5.399994,6.699997-7.100006s6.199997-2.5,9.899994-2.5c3.5,0,6.600006,0.799988,9.399994,2.399994
				c2.800003,1.600006,4.899994,3.899994,6.399994,6.799988C179.300003,399,180.100006,402.299988,180.100006,406.100006z
				 M171.100006,406.600006c0-3.799988-0.800003-6.899994-2.5-9.100006c-1.600006-2.200012-3.899994-3.299988-6.899994-3.299988
				c-2.899994,0-5.300003,1.100006-7.100006,3.299988c-1.800003,2.200012-2.699997,5.200012-2.699997,8.899994
				c0,3.700012,0.899994,6.600006,2.600006,8.799988c1.699997,2.200012,4,3.299988,6.899994,3.299988s5.300003-1.100006,7-3.200012
				S171.100006,410.299988,171.100006,406.600006z"/>
			<path class="st2" d="M213.899994,399.5c0,2.5-0.600006,4.700012-1.899994,6.600006c-1.199997,1.899994-3,3.399994-5.300003,4.5
				s-4.899994,1.600006-7.800003,1.600006h-4.100006v13h-8.5V387.5h13.300003C209.199997,387.5,213.899994,391.5,213.899994,399.5z
				 M205,399.799988C205,395.899994,202.699997,394,198.199997,394h-3.300003v11.799988h3.300003
				C202.699997,405.799988,205,403.799988,205,399.799988z"/>
			<path class="st2" d="M245.899994,394.399994h-10.800003v30.799988h-8.5v-30.799988h-10.699997V387.5h30V394.399994z"/>
			<path class="st2" d="M259.5,425.200012H251V387.5h8.5V425.200012z"/>
			<path class="st2" d="M311.100006,425.200012h-8.399994v-22.600006c0-2.399994,0.100006-5,0.299988-8.100006h-0.200012
				c-0.399994,2.299988-0.799988,4-1.200012,5l-8.799988,25.700012h-6.899994l-9-25.399994
				c-0.200012-0.700012-0.600006-2.399994-1.200012-5.299988h-0.200012c0.200012,3.299988,0.299988,6.600006,0.299988,9.799988
				v20.899994h-7.700012V387.5h12.399994l7.700012,22.399994c0.5,1.5,1,3.299988,1.299988,5.399994h0.200012
				c0.399994-2,0.899994-3.799988,1.5-5.399994l7.700012-22.299988h12.100006v37.600006H311.100006z"/>
			<path class="st2" d="M328.200012,425.200012h-8.5V387.5h8.5V425.200012z"/>
			<path class="st2" d="M363.799988,392.299988l-18.899994,26.100006h19v6.899994H333.5v-4.899994L352.799988,394.5h-17.899994
				v-6.899994h29v4.699982H363.799988z"/>
			<path class="st2" d="M392.100006,425.200012H369.5V387.5h21.799988v6.899994H378v8.399994h12.299988v6.899994H378v8.600006
				h14.100006V425.200012z"/>
			<path class="st2" d="M431.600006,405.899994c0,3.799988-0.799988,7.200012-2.5,10.100006s-4,5.200012-7.100006,6.799988
				s-6.600006,2.399994-10.5,2.399994h-13.399994v-37.700012H411.5C424.899994,387.5,431.600006,393.600006,431.600006,405.899994z
				 M422.700012,406c0-3.600006-1.100006-6.399994-3.200012-8.5s-5-3.100006-8.700012-3.100006h-4.200012v23.899994h4.200012
				c3.600006,0,6.5-1.100006,8.600006-3.299988S422.700012,409.899994,422.700012,406z"/>
			<path class="st2" d="M472.299988,394.399994H459v9.299988h12.200012v6.899994H459v14.700012h-8.5v-37.700012h21.799988
				V394.399994z"/>
			<path class="st2" d="M513.099976,406.100006c0,3.899994-0.799988,7.299988-2.399994,10.299988s-3.799988,5.399994-6.600006,7
				c-2.899994,1.600006-6.100006,2.5-9.700012,2.5c-3.5,0-6.700012-0.799988-9.5-2.399994s-5-3.899994-6.5-6.799988
				s-2.299988-6.200012-2.299988-9.899994c0-3.899994,0.799988-7.399994,2.299988-10.399994
				c1.600006-3,3.799988-5.399994,6.700012-7.100006c2.899994-1.700012,6.200012-2.5,9.899994-2.5
				c3.5,0,6.600006,0.799988,9.399994,2.399994s4.899994,3.899994,6.399994,6.799988
				C512.400024,399,513.099976,402.299988,513.099976,406.100006z M504.200012,406.600006
				c0-3.799988-0.799988-6.899994-2.5-9.100006c-1.600006-2.200012-3.899994-3.299988-6.899994-3.299988
				c-2.899994,0-5.299988,1.100006-7.100006,3.299988C485.900024,399.700012,485,402.700012,485,406.399994
				c0,3.700012,0.899994,6.600006,2.600006,8.799988c1.700012,2.200012,4,3.299988,6.899994,3.299988s5.299988-1.100006,7-3.200012
				S504.200012,410.299988,504.200012,406.600006z"/>
			<path class="st2" d="M548.400024,425.200012h-9.799988L534.800049,415.5c-1.200012-3.200012-2.900024-4.700012-5.099976-4.700012
				h-1.799988v14.399994h-8.5v-37.700012h13.5c9.200012,0,13.700012,3.399994,13.700012,10.299988
				c0,2.600006-0.700012,4.799988-2.200012,6.600006c-1.5,1.799988-3.599976,3.100006-6.299988,3.799988v0.100006
				c2.200012,0.700012,4,2.600006,5.400024,5.799988L548.400024,425.200012z M537.599976,398.799988
				c0-3.299988-2-4.899994-5.900024-4.899994h-3.799988v10.5h3.700012c1.799988,0,3.200012-0.5,4.400024-1.600006
				C537.099976,401.799988,537.599976,400.399994,537.599976,398.799988z"/>
		</g>
	</g>
</g>
</svg>
