<?xml version="1.0" encoding="utf-8"?>
<!-- Generator: Adobe Illustrator 22.1.0, SVG Export Plug-In . SVG Version: 6.00 Build 0)  -->
<svg version="1.1" id="Layer_1" xmlns="http://www.w3.org/2000/svg" xmlns:xlink="http://www.w3.org/1999/xlink" x="0px" y="0px"
	 viewBox="0 0 421.649475 408.247437" enable-background="new 0 0 421.649475 408.247437" xml:space="preserve">
<path d="M92.970711,149.082733c3.984833,0,7.025887,1.468124,9.228043,4.404312
	c2.202148,2.831345,3.250793,6.921005,3.250793,12.1642c0,5.452957-1.258369,9.857254-3.670242,12.793442
	c-2.516739,3.041077-6.082123,4.614044-10.591286,4.614044h-0.104866v-7.655075h0.104866
	c2.831329,0,4.928612-0.943802,6.186974-2.516754c1.258369-1.677811,1.887558-4.194565,1.887558-7.445328
	c0-2.621597-0.524315-4.718887-1.468086-6.082108s-2.41188-2.097275-4.299438-2.097275c-1.57296,0-2.726471,0.62915-3.565369,1.7827
	c-0.838921,1.153473-1.57296,3.355667-2.202156,6.501587l-0.734047,3.460495
	c-0.838913,4.299408-2.307007,7.655075-4.299431,9.857254c-2.097282,2.202118-4.718887,3.250763-8.074532,3.250763
	c-3.460518,0-6.291847-1.36322-8.38913-3.984818c-2.097282-2.621613-3.14592-6.396698-3.14592-11.11557
	c0-5.348053,1.153511-9.437775,3.460518-12.164215s5.5578-4.194565,9.647491-4.404297h0.104874v7.550217h-0.104874
	c-2.307007,0.104843-3.98484,0.943802-5.033478,2.307022c-1.048645,1.36322-1.677834,3.565414-1.677834,6.60643
	c0,2.307022,0.419449,4.089722,1.258369,5.348038c0.838913,1.258392,2.097282,1.887543,3.670242,1.887543
	s2.831322-0.524323,3.670242-1.677795c0.838913-1.153473,1.57296-3.250763,2.202148-6.187012l0.734047-3.565399
	c0.943771-4.718887,2.41188-8.179382,4.299438-10.276672C86.993454,150.236221,89.615059,149.082733,92.970711,149.082733z
	 M85.105904,370.8703c-1.887558,2.09729-3.355652,5.55777-4.299438,10.276672l-0.734047,3.565399
	c-0.629189,2.936188-1.363235,5.033447-2.202148,6.187012c-0.838921,1.153473-2.097282,1.677795-3.670242,1.677795
	c-1.572968,0-2.831329-0.62915-3.670242-1.887543c-0.838921-1.258392-1.258369-3.041077-1.258369-5.348053
	c0-3.041077,0.524323-5.243195,1.677834-6.606415c1.048637-1.36322,2.831329-2.09729,5.033478-2.307037h0.104874v-7.550293
	h-0.104874c-4.089691,0.104858-7.340485,1.677826-9.647491,4.404327c-2.307007,2.72644-3.460522,6.816162-3.460522,12.164215
	c0,4.718872,1.048641,8.389099,3.145924,11.11554c2.097282,2.621613,4.928612,3.984833,8.38913,3.984833
	c3.250793,0,5.977249-1.153473,8.074532-3.250763c2.097282-2.202118,3.460518-5.452942,4.299431-9.857239l0.734047-3.46051
	c0.629189-3.145935,1.363235-5.348053,2.202156-6.501587c0.838913-1.153473,1.992409-1.782715,3.565369-1.782715
	c1.887558,0,3.355652,0.73407,4.299438,2.09729c0.943771,1.36322,1.468086,3.46051,1.468086,6.082123
	c0,3.250763-0.629189,5.767517-1.887558,7.445313c-1.258362,1.677795-3.355644,2.516754-6.186974,2.516754h-0.104866v7.65509
	h0.104866c4.614014,0,8.179405-1.572968,10.591278-4.614044c2.516739-3.041107,3.67025-7.340515,3.67025-12.793457
	c0-5.138367-1.153511-9.228027-3.250793-12.164185c-2.202156-2.936188-5.348076-4.404327-9.22805-4.404327
	C89.615059,367.724365,86.993454,368.77301,85.105904,370.8703z M104.50576,271.773712v8.074554l0,0
	c-1.153511,0.73407-2.831329,1.048645-4.823753,1.048645l-4.404289,0.209747c-2.41188,0.104828-4.194565,0.62915-5.138336,1.677795
	c-0.943771,0.943817-1.468094,2.621613-1.468094,4.82373v9.962097h15.834473v7.759949H63.818485v-18.456055
	c0-0.943787,0-1.782684,0.10487-2.621582c0,0.314575,0,0.524292,0,0.838898c0.209724-3.145935,0.943771-5.767548,2.307007-7.759979
	c-0.104866,0.104828-0.209724,0.314575-0.31459,0.419495c0.31459-0.524323,0.629189-0.943817,0.943764-1.36322
	c2.097282-2.516785,4.928612-3.775085,8.38913-3.775085c4.823753,0,8.074532,2.202118,9.647491,6.606415
	c0.629196-1.992432,1.677834-3.46051,3.041054-4.299408c1.363235-0.943787,3.250793-1.36322,5.662659-1.468109l6.082115-0.314575
	C101.674431,273.032043,103.247391,272.61264,104.50576,271.773712L104.50576,271.773712z M76.192451,280.582275
	c-1.887558,0-3.355644,0.62915-4.404289,1.782684c-1.048637,1.258392-1.57296,2.936188-1.57296,5.243225v9.962097h12.269096
	v-10.171844c0-2.09729-0.524323-3.775085-1.57296-5.033478C79.862694,281.106598,78.289734,280.582275,76.192451,280.582275z
	 M63.818485,255.414886h40.687275v-7.759964H63.818485V255.414886z M70.844376,198.683441h-7.02589v29.991104h40.687275v-29.991104
	h-7.025894v22.231201H87.098328v-20.133926h-6.711311v20.133926h-9.542641V198.683441L70.844376,198.683441z M70.844376,322.003601
	h-7.02589v30.096008h40.687275V322.10849h-7.025894v22.231201H87.098328V324.20578h-6.711311v20.133911h-9.542641V322.003601
	L70.844376,322.003601z M122.227783,401.595459h54.005005l41.001877-56.41687l-26.950089-37.121918L122.227783,401.595459z
	 M358.801178,150.341049h-54.005005l-33.556519,46.140213l26.950104,37.121902L358.801178,150.341049z M183.678146,150.341049
	h-54.005005l182.568405,251.254349h54.005005L183.678146,150.341049z"/>
<path d="M108.38456,117.946236H89.384483L56.713627,72.763138l-32.902557,45.183098H4.810997l42.170891-58.158752L8.286619,6.262896
	H27.28669l29.426941,40.548935L86.140572,6.262896h19.000076l-38.926971,53.52459L108.38456,117.946236z M207.092239,86.202217
	c0,9.731743-3.243912,17.60984-9.731735,23.170822s-15.756165,8.573196-27.804977,8.573196h-52.134346V68.128975H92.39669
	l10.426865-14.365902h14.597618V6.262896h50.048965c11.353714,0,19.92691,2.780491,25.951309,8.109787
	c6.024414,5.329294,9.036621,12.512245,9.036621,21.08544c0,10.658573-4.86586,19.000065-14.59761,24.329361
	c6.256104,2.317081,10.890274,6.024406,14.134186,10.426872C205.470291,74.616814,207.092239,80.177795,207.092239,86.202217z
	 M134.335876,53.994778H166.3116c6.487839,0,11.353714-1.390244,14.597626-4.402458
	c3.243912-2.780491,4.865875-7.182949,4.865875-12.975655c0-4.86587-1.621964-8.804918-5.09758-11.585409
	c-3.243912-2.780491-8.109787-4.170755-14.365906-4.170755h-31.975739V53.994778z M189.945831,85.738792
	c0-5.792702-1.853668-10.426865-5.3293-13.207359c-3.475616-3.012215-8.804916-4.402458-15.756165-4.402458h-34.52449v34.987953
	h34.292801c6.719543,0,12.048828-1.621956,15.756165-4.402443C188.092178,95.702232,189.945831,91.299789,189.945831,85.738792
	L189.945831,85.738792z M322.019501,62.104565c0,8.573193-1.158539,16.68298-3.707336,23.634228
	c-2.548828,6.951263-6.256134,13.207375-11.122009,18.536674c-5.097565,5.329292-10.890289,9.500046-17.378113,12.04882
	c-6.487854,2.780487-13.902496,3.939026-22.243988,3.939026c-8.109772,0-15.756165-1.390259-22.243988-3.939026
	c-6.487823-2.780495-12.280533-6.719528-17.378113-12.04882c-5.097565-5.3293-8.804916-11.585411-11.353699-18.536659
	c-2.548782-6.951241-3.707321-15.061028-3.707321-23.634224s1.158539-16.682983,3.707321-23.634228
	s6.256119-13.439083,11.353699-18.76836c4.865875-5.329296,10.658585-9.268328,17.378113-12.048819
	c6.487839-2.548787,14.134216-3.939032,22.243988-3.939032c8.109802,0,15.524445,1.390246,22.243988,3.939032
	c6.487823,2.548787,12.512238,6.719541,17.378113,12.048819s8.804901,11.817114,11.122009,18.76836
	C320.629242,45.4216,322.019501,53.299648,322.019501,62.104565z M230.494766,62.104565
	c0,13.207363,3.475616,23.634228,10.19516,31.28059c6.719543,7.646378,15.524429,11.585403,26.878159,11.585403
	c11.121979,0,20.1586-3.939026,26.878143-11.585403s9.96344-18.07325,9.96344-31.280609s-3.243896-23.865948-9.96347-31.512308
	c-6.719543-7.646358-15.756165-11.585409-26.878143-11.585409s-20.1586,3.939032-26.878143,11.585409
	C233.970383,38.470318,230.494766,48.897186,230.494766,62.104565z M375.775787,59.787483l38.926971-53.52459h-19.000061
	l-29.42691,40.548935L336.848846,6.262896h-19.000061l38.926971,53.52459l-42.170929,58.158752h19.000092l32.670868-45.183098
	l32.902557,45.183098h19.000061L375.775787,59.787483z"/>
<g>
</g>
<g>
</g>
<g>
</g>
<g>
</g>
<g>
</g>
<g>
</g>
</svg>
