<?xml version="1.0" encoding="utf-8"?>
<!-- Generator: Adobe Illustrator 24.2.1, SVG Export Plug-In . SVG Version: 6.00 Build 0)  -->
<svg version="1.1" id="Layer_1" xmlns="http://www.w3.org/2000/svg" xmlns:xlink="http://www.w3.org/1999/xlink" x="0px" y="0px"
	 viewBox="0 0 1174.3 572.4" style="enable-background:new 0 0 1174.3 572.4;" xml:space="preserve">
<style type="text/css">
	.st0{fill:#FFFFFF;}
</style>
<path class="st0" d="M587.2,144.4c0.2,0,0.5,0.2,0.6,0.3c53.8,40.9,146,142.2,117.9,170.8C674,343.2,632.5,360,587.2,360
	c-45.4,0-86.8-16.8-118.5-44.5c-28.1-28.6,64.1-129.9,117.9-170.8C586.7,144.5,587,144.4,587.2,144.4z M680.9,26.3
	C653.4,10,623.5,0,587.2,0c-36.3,0-66.2,10-93.8,26.3c-0.3,0.2-0.5,0.6-0.3,0.9c0.1,0.3,0.5,0.4,0.9,0.3
	c34.9-7.5,87.8,22.6,92.8,25.6c0.1,0.1,0.2,0.1,0.4,0.1c0.2,0,0.3-0.1,0.4-0.1c5-3,58-33.1,92.8-25.6c0.4,0.1,0.7,0,0.9-0.3
	C681.4,26.9,681.3,26.5,680.9,26.3z M461.2,51.6c-0.3,0.2-0.6,0.4-0.8,0.6C427.5,84.9,407.2,130,407.2,180
	c0,41,13.7,78.8,36.8,109.1c0.2,0.3,0.6,0.5,1,0.3c0.3-0.2,0.3-0.6,0.2-0.9C431.4,246,501.6,143.1,537.8,100
	c0.1-0.1,0.2-0.3,0.2-0.5c0-0.3-0.1-0.4-0.3-0.6C482.8,44.3,464.2,50.1,461.2,51.6z M636.6,98.9c-0.2,0.1-0.3,0.3-0.3,0.6
	c0,0.2,0.1,0.4,0.2,0.5c36.2,43.1,106.4,146,92.7,188.4c-0.1,0.3-0.1,0.7,0.2,0.9c0.3,0.2,0.7,0,1-0.3c23.1-30.3,36.8-68,36.8-109.1
	c0-50-20.4-95.1-53.2-127.7c-0.2-0.2-0.5-0.5-0.8-0.6C710.1,50.1,691.5,44.3,636.6,98.9z M242.4,416.1H216L156.3,569h24.2l14.8-39.6
	h67.8l14.8,39.6h24.2L242.4,416.1z M202.8,509l26.4-70l26.4,70H202.8z M144.1,488.4v28.1V569v0l-22,0v-20
	c-5.7,7.7-12.6,13.6-20.8,17.5c-8.3,4-18,6-28.8,6c-11,0-21-1.9-29.7-5.5c-8.7-3.7-16.4-9.3-22.9-16.6c-6.6-7.3-11.7-15.8-15-25.4
	c-3.3-9.6-5-20.5-5-32.3c0-12,1.7-23,5-32.6c3.3-9.6,8.4-18.1,15.1-25.3c6.6-7.3,14.5-12.8,23.4-16.4c8.9-3.6,19.1-5.5,30.3-5.5
	c18.7,0,34.3,4.9,46.6,14.6c12.1,9.8,19.5,23.1,21.9,39.3l0,0.3h-24l0-0.2c-2.1-10.2-7.2-18.3-15.2-24.3c-8-5.9-17.8-8.9-29.1-8.9
	c-15.1,0-27.3,5.4-36.2,16c-9.1,10.5-13.6,25-13.6,43.1c0,18.1,4.6,32.6,13.6,43.1c9.2,10.6,21.5,16,36.7,16
	c13.2,0,24.4-4.2,33.5-12.4c9-8,13.8-18.4,14.3-30.9h-45v-19.9H144.1z M518,437.1v44.3H594v19.5H518V548h85.9v21H494.7V416.1h109.2
	v21H518z M471.3,416.1V569h-22.5V447.6c-2.9,8.5-6.8,19.1-11.6,31.5L402.7,569h-19.6l-0.1-0.1l-34.9-89.7c-4.2-11.1-8-21.5-11.3-31
	V569h-22.5V416.1h32.1l31.3,81.3c6.3,16.5,11.5,30.7,15.4,42.4c4.6-13.9,9.9-28.9,15.6-44.5l30.2-79.1H471.3z M766,429.1
	c-9.1-8.6-22.2-13-38.7-13h-65.1V569h23.4v-56.3h41.7c16.5,0,29.6-4.4,38.7-13c9.1-8.6,13.8-20.5,13.8-35.2
	C779.7,449.6,775.1,437.7,766,429.1z M685.5,436.7h41.3c9.5,0,16.8,2.4,21.7,7.2c4.9,4.8,7.4,11.7,7.4,20.6c0,8.9-2.5,15.8-7.4,20.5
	c-4.9,4.7-12.2,7.1-21.7,7.1h-41.3V436.7z M1038.3,526.6c0,14.1-5.3,25.4-15.8,33.6c-10.5,8.1-25.2,12.3-43.7,12.3
	c-20.1,0-35.9-4.6-47.1-13.8c-11.2-9.1-17-22.7-17.1-40.2l0-0.2h23.4l0,0.2c0.2,11.3,3.8,19.9,10.6,25.5c6.8,5.6,17.2,8.5,30.7,8.5
	c11.2,0,19.9-2.2,25.9-6.5c6-4.3,9-10.6,9-18.8c0-6.6-2.5-11.8-7.4-15.3c-4.9-3.6-14-6.9-26.9-9.7l-13.1-2.8
	c-15.7-3.1-27.7-8.3-35.6-15.5c-8-7.1-12.1-17.1-12.1-29.7c0-12.6,4.9-22.8,14.6-30.3c9.7-7.5,23-11.3,39.5-11.3
	c19.9,0,35.2,4.3,45.2,12.9c10.1,8.6,15.3,20.5,15.6,35.5l0,0.2h-23.1l0-0.2c-0.7-9.7-4-17-9.7-21.6c-5.7-4.6-15.1-6.9-27.8-6.9
	c-9.9,0-17.6,1.9-22.8,5.5c-5.2,3.6-7.8,8.9-7.8,15.7c0,6.9,2.3,12.2,7,15.7c4.7,3.8,13.4,7.1,26,9.8l13.3,2.8
	c17.4,3.7,30,9.1,37.7,16.1C1034.5,505.1,1038.3,514.7,1038.3,526.6z M1174.3,526.6c0,14.1-5.3,25.4-15.8,33.6
	c-10.5,8.1-25.2,12.3-43.7,12.3c-20.1,0-35.9-4.6-47.1-13.8c-11.2-9.1-17-22.7-17.1-40.2l0-0.2h23.4l0,0.2
	c0.2,11.3,3.8,19.9,10.6,25.5c6.8,5.6,17.2,8.5,30.7,8.5c11.2,0,19.9-2.2,25.9-6.5c6-4.3,9-10.6,9-18.8c0-6.6-2.5-11.8-7.4-15.3
	c-4.9-3.6-14-6.9-26.9-9.7l-13.1-2.8c-15.7-3.1-27.7-8.3-35.6-15.5c-8-7.1-12.1-17.1-12.1-29.7c0-12.6,4.9-22.8,14.6-30.3
	c9.7-7.5,23-11.3,39.5-11.3c19.9,0,35.2,4.3,45.2,12.9c10.1,8.6,15.3,20.5,15.6,35.5l0,0.2h-23.1l0-0.2c-0.7-9.7-4-17-9.7-21.6
	c-5.7-4.6-15.1-6.9-27.8-6.9c-9.9,0-17.6,1.9-22.8,5.5c-5.2,3.6-7.8,8.9-7.8,15.7c0,6.9,2.3,12.2,7,15.7c4.7,3.8,13.4,7.1,26,9.8
	l13.3,2.8c17.4,3.7,30,9.1,37.7,16.1C1170.5,505.1,1174.3,514.7,1174.3,526.6z M849.6,416.1h-26.4L763.5,569h24.2l14.8-39.6h67.8
	L885,569h24.2L849.6,416.1z M809.9,509l26.4-70l26.4,70H809.9z"/>
</svg>
