<svg xmlns="http://www.w3.org/2000/svg" width="261.629" height="44.604" viewBox="0 0 261.629 44.604"><defs><style>.a{fill:#0f7a10;}</style></defs><path class="a" d="M238.473,234.386a.135.135,0,0,1,.073.036c6.669,5.073,18.09,17.622,14.608,21.167a22.3,22.3,0,0,1-29.361,0c-3.482-3.545,7.937-16.094,14.606-21.167A.14.14,0,0,1,238.473,234.386Zm11.618-14.623a22.312,22.312,0,0,0-23.235,0,.085.085,0,0,0-.037.111.088.088,0,0,0,.108.039c4.318-.933,10.878,2.8,11.5,3.171a.073.073,0,0,0,.094,0c.622-.374,7.181-4.1,11.5-3.171a.088.088,0,0,0,.108-.039A.085.085,0,0,0,250.091,219.763ZM222.863,222.9a.411.411,0,0,0-.1.075,22.3,22.3,0,0,0-2.032,29.338.1.1,0,0,0,.119.036.092.092,0,0,0,.026-.115c-1.7-5.256,6.992-18,11.481-23.342a.1.1,0,0,0,.03-.064.1.1,0,0,0-.039-.074C225.547,221.987,223.237,222.706,222.863,222.9Zm21.734,5.855a.1.1,0,0,0-.038.074.1.1,0,0,0,.03.064c4.489,5.343,13.181,18.086,11.481,23.342a.092.092,0,0,0,.026.115.1.1,0,0,0,.119-.036,22.3,22.3,0,0,0-2.032-29.338.409.409,0,0,0-.1-.075C253.709,222.706,251.4,221.987,244.6,228.754Zm69.8-3.023h-4.633L299.3,252.54h4.252l2.59-6.945h11.882l2.59,6.945h4.252Zm-6.951,16.293,4.635-12.273,4.635,12.273Zm-10.292-3.6v14.119H293.3V249.03a9.674,9.674,0,0,1-3.641,3.065,11.618,11.618,0,0,1-5.047,1.046,13.375,13.375,0,0,1-5.205-.97,11.059,11.059,0,0,1-4.022-2.91,12.738,12.738,0,0,1-2.626-4.452,18.88,18.88,0,0,1,.009-11.392,12.507,12.507,0,0,1,2.655-4.444,11.305,11.305,0,0,1,4.106-2.882,14.008,14.008,0,0,1,5.308-.96,12.823,12.823,0,0,1,8.171,2.561,10.6,10.6,0,0,1,3.844,6.9l.007.045h-4.207l-.006-.031a6.883,6.883,0,0,0-2.669-4.256,8.345,8.345,0,0,0-5.1-1.569,7.9,7.9,0,0,0-6.352,2.8,13.13,13.13,0,0,0,0,15.116,8.121,8.121,0,0,0,6.427,2.8,8.455,8.455,0,0,0,5.867-2.167,7.351,7.351,0,0,0,2.5-5.413h-7.882V238.42Zm65.565-9.007v7.768h13.317v3.42H362.719v8.256h15.054v3.683h-19.15V225.731h19.15v3.683Zm-8.191-3.683V252.54h-3.945V231.266c-.507,1.493-1.187,3.344-2.026,5.518L342.5,252.54H339.07l-.01-.025-6.119-15.73c-.728-1.942-1.4-3.767-1.989-5.442v21.2h-3.945V225.731h5.622l5.491,14.253c1.1,2.887,2.01,5.388,2.7,7.437.813-2.435,1.735-5.062,2.741-7.811l5.3-13.879Zm51.668,2.282a9.53,9.53,0,0,0-6.784-2.282H388V252.54h4.1v-9.874h7.319a9.53,9.53,0,0,0,6.784-2.282,9.129,9.129,0,0,0,0-12.371Zm-14.1,1.325h7.244a5.266,5.266,0,0,1,3.8,1.265,4.828,4.828,0,0,1,1.3,3.613,4.764,4.764,0,0,1-1.3,3.594,5.315,5.315,0,0,1-3.8,1.247h-7.244ZM453.955,245.1a7.076,7.076,0,0,1-2.774,5.888c-1.838,1.425-4.416,2.148-7.664,2.148-3.522,0-6.3-.811-8.265-2.412a8.7,8.7,0,0,1-3-7.05v-.04h4.1v.039a5.635,5.635,0,0,0,1.863,4.475,8.338,8.338,0,0,0,5.381,1.493,7.746,7.746,0,0,0,4.538-1.138,3.814,3.814,0,0,0,1.579-3.291,3.143,3.143,0,0,0-1.3-2.69,13.578,13.578,0,0,0-4.715-1.7l-2.29-.488a13.2,13.2,0,0,1-6.25-2.712,6.655,6.655,0,0,1-2.115-5.21,6.388,6.388,0,0,1,2.568-5.306,11.111,11.111,0,0,1,6.932-1.979c3.5,0,6.164.761,7.928,2.262a7.985,7.985,0,0,1,2.735,6.224v.04h-4.056l0-.036a5.082,5.082,0,0,0-1.693-3.783c-1-.8-2.642-1.212-4.874-1.212a6.945,6.945,0,0,0-3.994.969,3.169,3.169,0,0,0-1.372,2.746,3.244,3.244,0,0,0,1.223,2.747,11.45,11.45,0,0,0,4.565,1.72l2.327.488c3.046.649,5.269,1.6,6.607,2.825A6.456,6.456,0,0,1,453.955,245.1Zm23.846,0a7.076,7.076,0,0,1-2.774,5.888c-1.838,1.425-4.416,2.148-7.664,2.148-3.522,0-6.3-.811-8.265-2.412a8.7,8.7,0,0,1-3-7.05v-.04h4.1v.039a5.634,5.634,0,0,0,1.863,4.475,8.338,8.338,0,0,0,5.381,1.493,7.745,7.745,0,0,0,4.538-1.138,3.814,3.814,0,0,0,1.579-3.291,3.142,3.142,0,0,0-1.3-2.69,13.577,13.577,0,0,0-4.715-1.7l-2.29-.488a13.2,13.2,0,0,1-6.25-2.712,6.654,6.654,0,0,1-2.115-5.21,6.388,6.388,0,0,1,2.568-5.306,11.111,11.111,0,0,1,6.932-1.979c3.5,0,6.164.761,7.928,2.262a7.985,7.985,0,0,1,2.736,6.224v.04h-4.056l0-.036a5.083,5.083,0,0,0-1.694-3.783c-1-.8-2.642-1.212-4.875-1.212a6.944,6.944,0,0,0-3.994.969,3.169,3.169,0,0,0-1.372,2.746,3.244,3.244,0,0,0,1.223,2.747,11.449,11.449,0,0,0,4.565,1.72l2.327.488c3.046.649,5.269,1.6,6.607,2.825A6.456,6.456,0,0,1,477.8,245.1Zm-56.944-19.373h-4.632L405.757,252.54h4.252l2.59-6.945h11.882l2.59,6.945h4.252Zm-6.951,16.293,4.635-12.273,4.635,12.273Z" transform="translate(-216.172 -216.5)"/></svg>