<?xml version="1.0" encoding="utf-8"?>
<!-- Generator: Adobe Illustrator 24.2.1, SVG Export Plug-In . SVG Version: 6.00 Build 0)  -->
<svg version="1.1" id="Layer_1" xmlns="http://www.w3.org/2000/svg" xmlns:xlink="http://www.w3.org/1999/xlink" x="0px" y="0px"
	 viewBox="0 0 152 142.5" style="enable-background:new 0 0 152 142.5;" xml:space="preserve">
<style type="text/css">
	.st0{display:none;}
</style>
<rect x="0.5" y="-80.5" class="st0" width="151.5" height="223"/>
<g>
	<path d="M21.6,128.1c0,2.6-0.6,4.9-1.7,6.9c-1.1,2-2.8,3.6-4.9,4.6c-2.1,1.1-4.6,1.7-7.3,1.7H0v-25.7h8c4.6,0,8.1,1.1,10.3,3.1
		C20.4,120.8,21.6,124,21.6,128.1z M17,128.1c0-2.9-0.8-5-2.5-6.6c-1.7-1.6-3.9-2.4-6.9-2.4H4.1v18.4h3.5c3,0,5.4-0.8,6.9-2.5
		C16.3,133.4,17,131,17,128.1z"/>
	<path d="M24.9,141.2v-25.7h13.9v3.7h-9.6v7.3h9v3.7h-9v7.4h10.2v3.7L24.9,141.2z"/>
	<path d="M43.2,141.2v-25.7h4.3v22h10.1v3.7L43.2,141.2z"/>
	<path d="M61.1,141.2v-25.7h4.3v25.7H61.1z"/>
	<path d="M82.8,141.2h-4.9l-9.1-25.7h4.7l6.4,19.5c0.2,0.7,0.4,1.3,0.4,2.4h0.1c0.1-0.8,0.2-1.6,0.4-2.4l6.5-19.4h4.5L82.8,141.2z"
		/>
	<path d="M95.4,141.2v-25.7h13.9v3.7h-9.6v7.3h9v3.7h-9v7.4h10.2v3.7L95.4,141.2z"/>
	<path d="M126.4,141.2l-3.1-7.4c-0.8-2-2-3-3.5-3h-2v10.4h-4.3v-25.7h8.3c2.7,0,4.8,0.6,6.3,1.8c1.5,1.2,2.2,2.9,2.2,5.2
		c0,1.8-0.4,3.3-1.5,4.6c-1,1.2-2.4,2.1-4.1,2.6v0.1c0.6,0.2,1.1,0.6,1.6,1.2c0.6,0.7,1,1.3,1.2,2l3.9,8.4L126.4,141.2z
		 M125.9,122.9c0-1.2-0.4-2.1-1.2-2.8c-0.8-0.7-1.9-1-3.4-1h-3.4v8.1h3.4c1.3,0,2.5-0.4,3.4-1.2
		C125.4,125.2,125.9,124.2,125.9,122.9z"/>
	<path d="M143.6,131.9v9.3h-4.3V132l-8.3-16.5h4.8l5.2,10.8c0.2,0.3,0.3,0.7,0.3,0.9c0,0.2,0.1,0.6,0.2,0.7l0,0
		c0.1-0.6,0.3-1.1,0.6-1.7l5.4-10.8h4.5L143.6,131.9z"/>
	<path d="M33.1,103.2c0,2.2-0.8,4-2.5,5.3c-1.6,1.2-3.8,1.9-6.7,1.9c-1.1,0-2.2-0.1-3.5-0.4c-1.2-0.3-2.1-0.7-2.7-1v-4.7
		c0.8,0.7,1.8,1.3,3,1.8c1.2,0.4,2.5,0.8,3.6,0.8c1.3,0,2.4-0.2,3-0.8s1.1-1.3,1.1-2.4c0-0.9-0.3-1.7-1-2.5c-0.7-0.8-2-1.7-4-2.7
		c-1.9-1-3.4-2.1-4.3-3.3c-0.9-1.1-1.5-2.6-1.5-4.1c0-1.3,0.3-2.6,1.1-3.7c0.7-1.1,1.8-1.9,3-2.6c1.3-0.6,2.8-0.9,4.6-0.9
		c1.1,0,2.2,0.1,3.3,0.3c1.1,0.2,1.8,0.4,2.2,0.7v4.5c-0.7-0.6-1.6-1-2.5-1.3c-1-0.3-2-0.4-3-0.4c-1.2,0-2.2,0.3-3,0.9
		s-1.1,1.3-1.1,2.4c0,0.7,0.1,1.2,0.3,1.7c0.2,0.4,0.7,0.9,1.2,1.3c0.6,0.4,1.5,1,2.9,1.8c2.2,1.2,3.9,2.4,4.9,3.6
		C32.5,100.3,33.1,101.7,33.1,103.2z"/>
	<path d="M60.5,110V93.6c0-1.2,0.1-3,0.2-5.5h-0.1c-0.2,1.3-0.4,2.2-0.8,2.9l-7.7,19.1h-2.8l-7.8-18.8c-0.2-0.7-0.4-1.7-0.8-3h-0.1
		c0,0.3,0.1,1.1,0.1,2.6c0,1.3,0.1,2.6,0.1,3.5v15.8h-3.9V84.4h6.1l6.5,16.3c0.7,1.6,1,2.7,1.1,3.6h0.1l1.3-3.6l6.7-16.1h5.8v25.7
		L60.5,110z"/>
	<path d="M87,110l-2.4-6.5H74.3l-2.2,6.5h-4.7l9.8-25.7h4.7l9.8,25.7H87L87,110z M79.6,88.2L79.6,88.2c-0.2,0.7-0.3,1.3-0.4,1.8
		l-3.5,9.9h7.8L80,90C79.8,89.7,79.7,89.1,79.6,88.2z"/>
	<path d="M107.3,110l-3.1-7.4c-0.8-2-2-3-3.5-3h-2V110h-4.3V84.3h8.3c2.7,0,4.8,0.6,6.3,1.8c1.5,1.2,2.2,2.9,2.2,5.2
		c0,1.8-0.4,3.3-1.5,4.6c-1,1.2-2.4,2.1-4.1,2.6v0.1c0.6,0.2,1.1,0.6,1.6,1.2c0.6,0.7,1,1.3,1.2,2l3.9,8.4L107.3,110L107.3,110z
		 M106.6,91.7c0-1.2-0.4-2.1-1.2-2.8c-0.8-0.7-1.9-1-3.4-1h-3.4V96h3.4c1.3,0,2.5-0.4,3.4-1.2C106.2,94,106.6,92.9,106.6,91.7z"/>
	<path d="M124.8,88v22h-4.3V88h-7.4v-3.7h19.1V88H124.8z"/>
</g>
<g>
	<path d="M109.7,9.5L101.2,0H50.7l-8.5,9.5l0.1,49.7H110L109.7,9.5z M52.5,4.1h46.9l3.8,4.3H48.5L52.5,4.1z M46.4,54.9l-0.1-42.3
		h59.3l0.1,42.3H46.4z"/>
	<polygon points="88.3,30.7 85.3,27.6 78.1,34.7 78.1,16.9 73.8,16.9 73.8,34.7 66.6,27.6 63.6,30.6 76,43 	"/>
	<rect x="63.1" y="46.4" width="25.9" height="4.3"/>
</g>
</svg>
