<?xml version="1.0" encoding="utf-8"?>
<svg version="1.1" id="Layer_1" xmlns="http://www.w3.org/2000/svg" xmlns:xlink="http://www.w3.org/1999/xlink" x="0px" y="0px"
	 width="713.6px" height="568px" viewBox="0 0 713.6 568" xml:space="preserve">
<g>
	<path d="M178.8,564H146l-56.4-78l-56.8,78H0l72.8-100.4L6,371.2h32.8l50.8,70l50.8-70h32.8L106,463.6L178.8,564z M349.2,509.2
		c0,16.8-5.6,30.4-16.8,40s-27.2,14.8-48,14.8h-90v-86h-43.2l18-24.8h25.2v-82h86.4c19.6,0,34.4,4.8,44.8,14s15.6,21.6,15.6,36.4
		c0,18.4-8.4,32.8-25.2,42c10.8,4,18.8,10.4,24.4,18C346.4,489.2,349.2,498.8,349.2,509.2z M223.6,453.6h55.2
		c11.2,0,19.6-2.4,25.2-7.6c5.6-4.8,8.4-12.4,8.4-22.4c0-8.4-2.8-15.2-8.8-20c-5.6-4.8-14-7.2-24.8-7.2h-55.2L223.6,453.6
		L223.6,453.6z M319.6,508.4c0-10-3.2-18-9.2-22.8c-6-5.2-15.2-7.6-27.2-7.6h-59.6v60.4h59.2c11.6,0,20.8-2.8,27.2-7.6
		C316.4,525.6,319.6,518,319.6,508.4L319.6,508.4z M547.6,467.6c0,14.8-2,28.8-6.4,40.8c-4.4,12-10.8,22.8-19.2,32
		c-8.8,9.2-18.8,16.4-30,20.8c-11.2,4.8-24,6.8-38.4,6.8c-14,0-27.2-2.4-38.4-6.8c-11.2-4.8-21.2-11.6-30-20.8s-15.2-20-19.6-32
		s-6.4-26-6.4-40.8s2-28.8,6.4-40.8s10.8-23.2,19.6-32.4c8.4-9.2,18.4-16,30-20.8c11.2-4.4,24.4-6.8,38.4-6.8s26.8,2.4,38.4,6.8
		c11.2,4.4,21.6,11.6,30,20.8s15.2,20.4,19.2,32.4S547.6,452.4,547.6,467.6z M389.6,467.6c0,22.8,6,40.8,17.6,54
		c11.6,13.2,26.8,20,46.4,20c19.2,0,34.8-6.8,46.4-20s17.2-31.2,17.2-54s-5.6-41.2-17.2-54.4s-27.2-20-46.4-20s-34.8,6.8-46.4,20
		C395.6,426.8,389.6,444.8,389.6,467.6z M640.4,463.6l67.2-92.4h-32.8l-50.8,70l-50.8-70h-32.8l67.2,92.4L534.8,564h32.8l56.4-78
		l56.8,78h32.8L640.4,463.6z"/>
	<path d="M356.8,128.8C356.8,128.8,357.2,128.8,356.8,128.8c48.4,36.8,130.4,127.2,105.6,152.8c-28.4,24.8-65.2,39.6-105.6,39.6
		s-77.6-14.8-105.6-39.6c-25.2-25.6,57.2-116,105.2-152.4C356.4,128.8,356.8,128.8,356.8,128.8z M440.4,23.6
		C416,8.8,389.2,0,356.8,0s-59.2,8.8-83.6,23.6c-0.4,0-0.4,0.4-0.4,0.8s0.4,0.4,0.8,0.4c31.2-6.8,78.4,20,82.8,22.8h0.4h0.4
		c4.4-2.8,51.6-29.6,82.8-22.8c0.4,0,0.8,0,0.8-0.4S440.8,23.6,440.4,23.6L440.4,23.6z M244.4,46c-0.4,0-0.4,0.4-0.8,0.4
		c-29.2,29.2-47.2,69.6-47.2,114c0,36.4,12.4,70.4,32.8,97.2c0,0.4,0.4,0.4,0.8,0.4s0.4-0.4,0-0.8c-12.4-38,50.4-129.6,82.8-168
		l0.4-0.4c0-0.4,0-0.4-0.4-0.4C263.6,39.6,247.2,44.8,244.4,46z M400.8,88l-0.4,0.4c0,0,0,0.4,0.4,0.4c32.4,38.4,94.8,130,82.8,168
		v0.8c0.4,0,0.8,0,0.8-0.4c20.4-26.8,32.8-60.8,32.8-97.2c0-44.4-18-84.8-47.6-114c-0.4-0.4-0.4-0.4-0.8-0.4
		C466.4,44.8,450,39.6,400.8,88z"/>
</g>
</svg>
